solid OpenSCAD_Model
  facet normal 0.994522 0.104529 0
    outer loop
      vertex 9 0 3
      vertex 8.80333 1.8712 0
      vertex 8.80333 1.8712 3
    endloop
  endfacet
  facet normal 0.994522 0.104529 0
    outer loop
      vertex 8.80333 1.8712 0
      vertex 9 0 3
      vertex 9 0 0
    endloop
  endfacet
  facet normal -0.994522 0.104529 0
    outer loop
      vertex -9 0 0
      vertex -8.80333 1.8712 3
      vertex -8.80333 1.8712 0
    endloop
  endfacet
  facet normal -0.994522 0.104529 0
    outer loop
      vertex -8.80333 1.8712 3
      vertex -9 0 0
      vertex -9 0 3
    endloop
  endfacet
  facet normal 0 1 -0
    outer loop
      vertex 0.940756 8.9507 0
      vertex -0.940756 8.9507 3
      vertex 0.940756 8.9507 3
    endloop
  endfacet
  facet normal 0 1 0
    outer loop
      vertex -0.940756 8.9507 3
      vertex 0.940756 8.9507 0
      vertex -0.940756 8.9507 0
    endloop
  endfacet
  facet normal 0 -1 0
    outer loop
      vertex -0.940756 -8.9507 0
      vertex 0.940756 -8.9507 3
      vertex -0.940756 -8.9507 3
    endloop
  endfacet
  facet normal 0 -1 -0
    outer loop
      vertex 0.940756 -8.9507 3
      vertex -0.940756 -8.9507 0
      vertex 0.940756 -8.9507 0
    endloop
  endfacet
  facet normal 0.587786 0.809017 -0
    outer loop
      vertex 6.02217 6.6883 0
      vertex 4.5 7.79423 3
      vertex 6.02217 6.6883 3
    endloop
  endfacet
  facet normal 0.587786 0.809017 0
    outer loop
      vertex 4.5 7.79423 3
      vertex 6.02217 6.6883 0
      vertex 4.5 7.79423 0
    endloop
  endfacet
  facet normal -0.743145 0.669131 0
    outer loop
      vertex -7.28115 5.29007 0
      vertex -6.02217 6.6883 3
      vertex -6.02217 6.6883 0
    endloop
  endfacet
  facet normal -0.743145 0.669131 0
    outer loop
      vertex -6.02217 6.6883 3
      vertex -7.28115 5.29007 0
      vertex -7.28115 5.29007 3
    endloop
  endfacet
  facet normal -0.866025 0.5 0
    outer loop
      vertex -8.22191 3.66063 0
      vertex -7.28115 5.29007 3
      vertex -7.28115 5.29007 0
    endloop
  endfacet
  facet normal -0.866025 0.5 0
    outer loop
      vertex -7.28115 5.29007 3
      vertex -8.22191 3.66063 0
      vertex -8.22191 3.66063 3
    endloop
  endfacet
  facet normal -0.406737 0.913545 0
    outer loop
      vertex -2.78115 8.55951 0
      vertex -4.5 7.79423 3
      vertex -2.78115 8.55951 3
    endloop
  endfacet
  facet normal -0.406737 0.913545 0
    outer loop
      vertex -4.5 7.79423 3
      vertex -2.78115 8.55951 0
      vertex -4.5 7.79423 0
    endloop
  endfacet
  facet normal 0.951057 -0.309017 0
    outer loop
      vertex 8.22191 -3.66063 3
      vertex 8.80333 -1.8712 0
      vertex 8.80333 -1.8712 3
    endloop
  endfacet
  facet normal 0.951057 -0.309017 0
    outer loop
      vertex 8.80333 -1.8712 0
      vertex 8.22191 -3.66063 3
      vertex 8.22191 -3.66063 0
    endloop
  endfacet
  facet normal 0.866025 0.5 0
    outer loop
      vertex 8.22191 3.66063 3
      vertex 7.28115 5.29007 0
      vertex 7.28115 5.29007 3
    endloop
  endfacet
  facet normal 0.866025 0.5 0
    outer loop
      vertex 7.28115 5.29007 0
      vertex 8.22191 3.66063 3
      vertex 8.22191 3.66063 0
    endloop
  endfacet
  facet normal 0.951057 0.309017 0
    outer loop
      vertex 8.80333 1.8712 3
      vertex 8.22191 3.66063 0
      vertex 8.22191 3.66063 3
    endloop
  endfacet
  facet normal 0.951057 0.309017 0
    outer loop
      vertex 8.22191 3.66063 0
      vertex 8.80333 1.8712 3
      vertex 8.80333 1.8712 0
    endloop
  endfacet
  facet normal 0.743145 0.669131 0
    outer loop
      vertex 7.28115 5.29007 3
      vertex 6.02217 6.6883 0
      vertex 6.02217 6.6883 3
    endloop
  endfacet
  facet normal 0.743145 0.669131 0
    outer loop
      vertex 6.02217 6.6883 0
      vertex 7.28115 5.29007 3
      vertex 7.28115 5.29007 0
    endloop
  endfacet
  facet normal 0.207912 0.978148 -0
    outer loop
      vertex 2.78115 8.55951 0
      vertex 0.940756 8.9507 3
      vertex 2.78115 8.55951 3
    endloop
  endfacet
  facet normal 0.207912 0.978148 0
    outer loop
      vertex 0.940756 8.9507 3
      vertex 2.78115 8.55951 0
      vertex 0.940756 8.9507 0
    endloop
  endfacet
  facet normal 0.406736 0.913546 -0
    outer loop
      vertex 4.5 7.79423 0
      vertex 2.78115 8.55951 3
      vertex 4.5 7.79423 3
    endloop
  endfacet
  facet normal 0.406736 0.913546 0
    outer loop
      vertex 2.78115 8.55951 3
      vertex 4.5 7.79423 0
      vertex 2.78115 8.55951 0
    endloop
  endfacet
  facet normal -0.951057 0.309017 0
    outer loop
      vertex -8.80333 1.8712 0
      vertex -8.22191 3.66063 3
      vertex -8.22191 3.66063 0
    endloop
  endfacet
  facet normal -0.951057 0.309017 0
    outer loop
      vertex -8.22191 3.66063 3
      vertex -8.80333 1.8712 0
      vertex -8.80333 1.8712 3
    endloop
  endfacet
  facet normal 0 0 1
    outer loop
      vertex 5.5 0 3
      vertex 9 0 3
      vertex 8.80333 1.8712 3
    endloop
  endfacet
  facet normal 0 0 1
    outer loop
      vertex 5.37981 1.14351 3
      vertex 8.80333 1.8712 3
      vertex 8.22191 3.66063 3
    endloop
  endfacet
  facet normal 0 0 1
    outer loop
      vertex 9 0 3
      vertex 5.5 0 3
      vertex 8.80333 -1.8712 3
    endloop
  endfacet
  facet normal 0 0 1
    outer loop
      vertex 5.0245 2.23705 3
      vertex 8.22191 3.66063 3
      vertex 7.28115 5.29007 3
    endloop
  endfacet
  facet normal -0 0 1
    outer loop
      vertex 5.37981 -1.14351 3
      vertex 8.80333 -1.8712 3
      vertex 5.5 0 3
    endloop
  endfacet
  facet normal 0 0 1
    outer loop
      vertex 4.44959 3.23282 3
      vertex 7.28115 5.29007 3
      vertex 6.02217 6.6883 3
    endloop
  endfacet
  facet normal 0 0 1
    outer loop
      vertex 8.80333 -1.8712 3
      vertex 5.37981 -1.14351 3
      vertex 8.22191 -3.66063 3
    endloop
  endfacet
  facet normal -0 0 1
    outer loop
      vertex 5.0245 -2.23705 3
      vertex 8.22191 -3.66063 3
      vertex 5.37981 -1.14351 3
    endloop
  endfacet
  facet normal 0 0 1
    outer loop
      vertex 8.80333 1.8712 3
      vertex 5.37981 1.14351 3
      vertex 5.5 0 3
    endloop
  endfacet
  facet normal 0 0 1
    outer loop
      vertex 8.22191 3.66063 3
      vertex 5.0245 2.23705 3
      vertex 5.37981 1.14351 3
    endloop
  endfacet
  facet normal 0 0 1
    outer loop
      vertex 3.68022 4.0873 3
      vertex 6.02217 6.6883 3
      vertex 4.5 7.79423 3
    endloop
  endfacet
  facet normal 0 0 1
    outer loop
      vertex 7.28115 5.29007 3
      vertex 4.44959 3.23282 3
      vertex 5.0245 2.23705 3
    endloop
  endfacet
  facet normal 0 0 1
    outer loop
      vertex 6.02217 6.6883 3
      vertex 3.68022 4.0873 3
      vertex 4.44959 3.23282 3
    endloop
  endfacet
  facet normal 0 0 1
    outer loop
      vertex 2.75 4.76314 3
      vertex 4.5 7.79423 3
      vertex 2.78115 8.55951 3
    endloop
  endfacet
  facet normal 0 0 1
    outer loop
      vertex 4.5 7.79423 3
      vertex 2.75 4.76314 3
      vertex 3.68022 4.0873 3
    endloop
  endfacet
  facet normal 0 0 1
    outer loop
      vertex 2.78115 8.55951 3
      vertex 1.69959 5.23081 3
      vertex 2.75 4.76314 3
    endloop
  endfacet
  facet normal 0 0 1
    outer loop
      vertex 0.940756 8.9507 3
      vertex 1.69959 5.23081 3
      vertex 2.78115 8.55951 3
    endloop
  endfacet
  facet normal 0 0 1
    outer loop
      vertex 0.940756 8.9507 3
      vertex 0.574906 5.46987 3
      vertex 1.69959 5.23081 3
    endloop
  endfacet
  facet normal 0 0 1
    outer loop
      vertex 0.940756 8.9507 3
      vertex -0.574906 5.46987 3
      vertex 0.574906 5.46987 3
    endloop
  endfacet
  facet normal -0 0 1
    outer loop
      vertex -0.940756 8.9507 3
      vertex -0.574906 5.46987 3
      vertex 0.940756 8.9507 3
    endloop
  endfacet
  facet normal 0 0 1
    outer loop
      vertex -0.940756 8.9507 3
      vertex -1.69959 5.23081 3
      vertex -0.574906 5.46987 3
    endloop
  endfacet
  facet normal -0 0 1
    outer loop
      vertex -2.78115 8.55951 3
      vertex -1.69959 5.23081 3
      vertex -0.940756 8.9507 3
    endloop
  endfacet
  facet normal 0 0 1
    outer loop
      vertex -1.69959 5.23081 3
      vertex -2.78115 8.55951 3
      vertex -2.75 4.76314 3
    endloop
  endfacet
  facet normal -0 0 1
    outer loop
      vertex -4.5 7.79423 3
      vertex -2.75 4.76314 3
      vertex -2.78115 8.55951 3
    endloop
  endfacet
  facet normal 0 0 1
    outer loop
      vertex -2.75 4.76314 3
      vertex -4.5 7.79423 3
      vertex -3.68022 4.0873 3
    endloop
  endfacet
  facet normal -0 0 1
    outer loop
      vertex -6.02217 6.6883 3
      vertex -3.68022 4.0873 3
      vertex -4.5 7.79423 3
    endloop
  endfacet
  facet normal 0 0 1
    outer loop
      vertex -3.68022 4.0873 3
      vertex -6.02217 6.6883 3
      vertex -4.44959 3.23282 3
    endloop
  endfacet
  facet normal -0 0 1
    outer loop
      vertex -7.28115 5.29007 3
      vertex -4.44959 3.23282 3
      vertex -6.02217 6.6883 3
    endloop
  endfacet
  facet normal -0 0 1
    outer loop
      vertex -8.22191 3.66063 3
      vertex -5.0245 2.23705 3
      vertex -7.28115 5.29007 3
    endloop
  endfacet
  facet normal 0 0 1
    outer loop
      vertex -4.44959 3.23282 3
      vertex -7.28115 5.29007 3
      vertex -5.0245 2.23705 3
    endloop
  endfacet
  facet normal 0 0 1
    outer loop
      vertex 8.22191 -3.66063 3
      vertex 5.0245 -2.23705 3
      vertex 7.28115 -5.29007 3
    endloop
  endfacet
  facet normal -0 0 1
    outer loop
      vertex 4.44959 -3.23282 3
      vertex 7.28115 -5.29007 3
      vertex 5.0245 -2.23705 3
    endloop
  endfacet
  facet normal 0 0 1
    outer loop
      vertex 7.28115 -5.29007 3
      vertex 4.44959 -3.23282 3
      vertex 6.02217 -6.6883 3
    endloop
  endfacet
  facet normal -0 0 1
    outer loop
      vertex 3.68022 -4.0873 3
      vertex 6.02217 -6.6883 3
      vertex 4.44959 -3.23282 3
    endloop
  endfacet
  facet normal 0 0 1
    outer loop
      vertex 6.02217 -6.6883 3
      vertex 3.68022 -4.0873 3
      vertex 4.5 -7.79423 3
    endloop
  endfacet
  facet normal -0 0 1
    outer loop
      vertex 2.75 -4.76314 3
      vertex 4.5 -7.79423 3
      vertex 3.68022 -4.0873 3
    endloop
  endfacet
  facet normal 0 0 1
    outer loop
      vertex 4.5 -7.79423 3
      vertex 2.75 -4.76314 3
      vertex 2.78115 -8.55951 3
    endloop
  endfacet
  facet normal -0 0 1
    outer loop
      vertex 1.69959 -5.23081 3
      vertex 2.78115 -8.55951 3
      vertex 2.75 -4.76314 3
    endloop
  endfacet
  facet normal 0 0 1
    outer loop
      vertex 1.69959 -5.23081 3
      vertex 0.940756 -8.9507 3
      vertex 2.78115 -8.55951 3
    endloop
  endfacet
  facet normal -0 0 1
    outer loop
      vertex 0.574906 -5.46987 3
      vertex 0.940756 -8.9507 3
      vertex 1.69959 -5.23081 3
    endloop
  endfacet
  facet normal -0 0 1
    outer loop
      vertex -0.574906 -5.46987 3
      vertex 0.940756 -8.9507 3
      vertex 0.574906 -5.46987 3
    endloop
  endfacet
  facet normal 0 0 1
    outer loop
      vertex -0.574906 -5.46987 3
      vertex -0.940756 -8.9507 3
      vertex 0.940756 -8.9507 3
    endloop
  endfacet
  facet normal 0 0 1
    outer loop
      vertex -1.69959 -5.23081 3
      vertex -0.940756 -8.9507 3
      vertex -0.574906 -5.46987 3
    endloop
  endfacet
  facet normal 0 0 1
    outer loop
      vertex -2.78115 -8.55951 3
      vertex -1.69959 -5.23081 3
      vertex -2.75 -4.76314 3
    endloop
  endfacet
  facet normal 0 0 1
    outer loop
      vertex -1.69959 -5.23081 3
      vertex -2.78115 -8.55951 3
      vertex -0.940756 -8.9507 3
    endloop
  endfacet
  facet normal 0 0 1
    outer loop
      vertex -4.5 -7.79423 3
      vertex -2.75 -4.76314 3
      vertex -3.68022 -4.0873 3
    endloop
  endfacet
  facet normal 0 0 1
    outer loop
      vertex -6.02217 -6.6883 3
      vertex -3.68022 -4.0873 3
      vertex -4.44959 -3.23282 3
    endloop
  endfacet
  facet normal 0 0 1
    outer loop
      vertex -2.75 -4.76314 3
      vertex -4.5 -7.79423 3
      vertex -2.78115 -8.55951 3
    endloop
  endfacet
  facet normal 0 0 1
    outer loop
      vertex -7.28115 -5.29007 3
      vertex -4.44959 -3.23282 3
      vertex -5.0245 -2.23705 3
    endloop
  endfacet
  facet normal 0 0 1
    outer loop
      vertex -8.22191 -3.66063 3
      vertex -5.0245 -2.23705 3
      vertex -5.37981 -1.14351 3
    endloop
  endfacet
  facet normal 0 0 1
    outer loop
      vertex -3.68022 -4.0873 3
      vertex -6.02217 -6.6883 3
      vertex -4.5 -7.79423 3
    endloop
  endfacet
  facet normal 0 0 1
    outer loop
      vertex -8.80333 -1.8712 3
      vertex -5.37981 -1.14351 3
      vertex -5.5 0 3
    endloop
  endfacet
  facet normal 0 0 1
    outer loop
      vertex -5.0245 2.23705 3
      vertex -8.22191 3.66063 3
      vertex -5.37981 1.14351 3
    endloop
  endfacet
  facet normal -0 0 1
    outer loop
      vertex -8.80333 1.8712 3
      vertex -5.37981 1.14351 3
      vertex -8.22191 3.66063 3
    endloop
  endfacet
  facet normal 0 0 1
    outer loop
      vertex -4.44959 -3.23282 3
      vertex -7.28115 -5.29007 3
      vertex -6.02217 -6.6883 3
    endloop
  endfacet
  facet normal 0 0 1
    outer loop
      vertex -5.37981 1.14351 3
      vertex -8.80333 1.8712 3
      vertex -5.5 0 3
    endloop
  endfacet
  facet normal 0 0 1
    outer loop
      vertex -5.0245 -2.23705 3
      vertex -8.22191 -3.66063 3
      vertex -7.28115 -5.29007 3
    endloop
  endfacet
  facet normal 0 0 1
    outer loop
      vertex -9 0 3
      vertex -5.5 0 3
      vertex -8.80333 1.8712 3
    endloop
  endfacet
  facet normal 0 0 1
    outer loop
      vertex -5.37981 -1.14351 3
      vertex -8.80333 -1.8712 3
      vertex -8.22191 -3.66063 3
    endloop
  endfacet
  facet normal 0 0 1
    outer loop
      vertex -5.5 0 3
      vertex -9 0 3
      vertex -8.80333 -1.8712 3
    endloop
  endfacet
  facet normal -0.587785 0.809017 0
    outer loop
      vertex -4.5 7.79423 0
      vertex -6.02217 6.6883 3
      vertex -4.5 7.79423 3
    endloop
  endfacet
  facet normal -0.587785 0.809017 0
    outer loop
      vertex -6.02217 6.6883 3
      vertex -4.5 7.79423 0
      vertex -6.02217 6.6883 0
    endloop
  endfacet
  facet normal -0.207912 0.978148 0
    outer loop
      vertex -0.940756 8.9507 0
      vertex -2.78115 8.55951 3
      vertex -0.940756 8.9507 3
    endloop
  endfacet
  facet normal -0.207912 0.978148 0
    outer loop
      vertex -2.78115 8.55951 3
      vertex -0.940756 8.9507 0
      vertex -2.78115 8.55951 0
    endloop
  endfacet
  facet normal 0.994522 -0.104529 0
    outer loop
      vertex 8.80333 -1.8712 3
      vertex 9 0 0
      vertex 9 0 3
    endloop
  endfacet
  facet normal 0.994522 -0.104529 0
    outer loop
      vertex 9 0 0
      vertex 8.80333 -1.8712 3
      vertex 8.80333 -1.8712 0
    endloop
  endfacet
  facet normal 0 0 -1
    outer loop
      vertex 2.1 0 0
      vertex 9 0 0
      vertex 8.80333 -1.8712 0
    endloop
  endfacet
  facet normal 0 0 -1
    outer loop
      vertex 2.05411 -0.436614 0
      vertex 8.80333 -1.8712 0
      vertex 8.22191 -3.66063 0
    endloop
  endfacet
  facet normal 0 0 -1
    outer loop
      vertex 9 0 0
      vertex 2.1 0 0
      vertex 8.80333 1.8712 0
    endloop
  endfacet
  facet normal 0 0 -1
    outer loop
      vertex 1.91844 -0.854146 0
      vertex 8.22191 -3.66063 0
      vertex 7.28115 -5.29007 0
    endloop
  endfacet
  facet normal 0 0 -1
    outer loop
      vertex 2.05411 0.436614 0
      vertex 8.80333 1.8712 0
      vertex 2.1 0 0
    endloop
  endfacet
  facet normal 0 0 -1
    outer loop
      vertex 1.69894 -1.23435 0
      vertex 7.28115 -5.29007 0
      vertex 6.02217 -6.6883 0
    endloop
  endfacet
  facet normal -0 0 -1
    outer loop
      vertex 8.80333 1.8712 0
      vertex 2.05411 0.436614 0
      vertex 8.22191 3.66063 0
    endloop
  endfacet
  facet normal 0 0 -1
    outer loop
      vertex 1.40517 -1.5606 0
      vertex 6.02217 -6.6883 0
      vertex 4.5 -7.79423 0
    endloop
  endfacet
  facet normal 0 0 -1
    outer loop
      vertex 1.91844 0.854146 0
      vertex 8.22191 3.66063 0
      vertex 2.05411 0.436614 0
    endloop
  endfacet
  facet normal 0 0 -1
    outer loop
      vertex 1.05 -1.81865 0
      vertex 4.5 -7.79423 0
      vertex 2.78115 -8.55951 0
    endloop
  endfacet
  facet normal -0 0 -1
    outer loop
      vertex 8.22191 3.66063 0
      vertex 1.91844 0.854146 0
      vertex 7.28115 5.29007 0
    endloop
  endfacet
  facet normal 0 0 -1
    outer loop
      vertex 1.69894 1.23435 0
      vertex 7.28115 5.29007 0
      vertex 1.91844 0.854146 0
    endloop
  endfacet
  facet normal 0 0 -1
    outer loop
      vertex 8.80333 -1.8712 0
      vertex 2.05411 -0.436614 0
      vertex 2.1 0 0
    endloop
  endfacet
  facet normal 0 0 -1
    outer loop
      vertex 8.22191 -3.66063 0
      vertex 1.91844 -0.854146 0
      vertex 2.05411 -0.436614 0
    endloop
  endfacet
  facet normal 0 0 -1
    outer loop
      vertex 7.28115 -5.29007 0
      vertex 1.69894 -1.23435 0
      vertex 1.91844 -0.854146 0
    endloop
  endfacet
  facet normal 0 0 -1
    outer loop
      vertex 6.02217 -6.6883 0
      vertex 1.40517 -1.5606 0
      vertex 1.69894 -1.23435 0
    endloop
  endfacet
  facet normal 0 0 -1
    outer loop
      vertex 4.5 -7.79423 0
      vertex 1.05 -1.81865 0
      vertex 1.40517 -1.5606 0
    endloop
  endfacet
  facet normal 0 0 -1
    outer loop
      vertex 0.648935 -1.99722 0
      vertex 2.78115 -8.55951 0
      vertex 0.940756 -8.9507 0
    endloop
  endfacet
  facet normal 0 0 -1
    outer loop
      vertex 2.78115 -8.55951 0
      vertex 0.648935 -1.99722 0
      vertex 1.05 -1.81865 0
    endloop
  endfacet
  facet normal 0 0 -1
    outer loop
      vertex 0.940756 -8.9507 0
      vertex 0.219509 -2.0885 0
      vertex 0.648935 -1.99722 0
    endloop
  endfacet
  facet normal 0 0 -1
    outer loop
      vertex 0.940756 -8.9507 0
      vertex -0.219509 -2.0885 0
      vertex 0.219509 -2.0885 0
    endloop
  endfacet
  facet normal 0 0 -1
    outer loop
      vertex -0.940756 -8.9507 0
      vertex -0.219509 -2.0885 0
      vertex 0.940756 -8.9507 0
    endloop
  endfacet
  facet normal -0 0 -1
    outer loop
      vertex -0.219509 -2.0885 0
      vertex -0.940756 -8.9507 0
      vertex -0.648935 -1.99722 0
    endloop
  endfacet
  facet normal 0 0 -1
    outer loop
      vertex -2.78115 -8.55951 0
      vertex -0.648935 -1.99722 0
      vertex -0.940756 -8.9507 0
    endloop
  endfacet
  facet normal -0 0 -1
    outer loop
      vertex -0.648935 -1.99722 0
      vertex -2.78115 -8.55951 0
      vertex -1.05 -1.81865 0
    endloop
  endfacet
  facet normal 0 0 -1
    outer loop
      vertex -4.5 -7.79423 0
      vertex -1.05 -1.81865 0
      vertex -2.78115 -8.55951 0
    endloop
  endfacet
  facet normal -0 0 -1
    outer loop
      vertex -1.05 -1.81865 0
      vertex -4.5 -7.79423 0
      vertex -1.40517 -1.5606 0
    endloop
  endfacet
  facet normal 0 0 -1
    outer loop
      vertex -6.02217 -6.6883 0
      vertex -1.40517 -1.5606 0
      vertex -4.5 -7.79423 0
    endloop
  endfacet
  facet normal 0 0 -1
    outer loop
      vertex -7.28115 -5.29007 0
      vertex -1.69894 -1.23435 0
      vertex -6.02217 -6.6883 0
    endloop
  endfacet
  facet normal -0 0 -1
    outer loop
      vertex -1.40517 -1.5606 0
      vertex -6.02217 -6.6883 0
      vertex -1.69894 -1.23435 0
    endloop
  endfacet
  facet normal -0 0 -1
    outer loop
      vertex 7.28115 5.29007 0
      vertex 1.69894 1.23435 0
      vertex 6.02217 6.6883 0
    endloop
  endfacet
  facet normal 0 0 -1
    outer loop
      vertex 1.40517 1.5606 0
      vertex 6.02217 6.6883 0
      vertex 1.69894 1.23435 0
    endloop
  endfacet
  facet normal -0 0 -1
    outer loop
      vertex 6.02217 6.6883 0
      vertex 1.40517 1.5606 0
      vertex 4.5 7.79423 0
    endloop
  endfacet
  facet normal 0 0 -1
    outer loop
      vertex 1.05 1.81865 0
      vertex 4.5 7.79423 0
      vertex 1.40517 1.5606 0
    endloop
  endfacet
  facet normal -0 0 -1
    outer loop
      vertex 4.5 7.79423 0
      vertex 1.05 1.81865 0
      vertex 2.78115 8.55951 0
    endloop
  endfacet
  facet normal 0 0 -1
    outer loop
      vertex 0.648935 1.99722 0
      vertex 2.78115 8.55951 0
      vertex 1.05 1.81865 0
    endloop
  endfacet
  facet normal -0 0 -1
    outer loop
      vertex 2.78115 8.55951 0
      vertex 0.648935 1.99722 0
      vertex 0.940756 8.9507 0
    endloop
  endfacet
  facet normal 0 0 -1
    outer loop
      vertex 0.219509 2.0885 0
      vertex 0.940756 8.9507 0
      vertex 0.648935 1.99722 0
    endloop
  endfacet
  facet normal 0 0 -1
    outer loop
      vertex -0.219509 2.0885 0
      vertex 0.940756 8.9507 0
      vertex 0.219509 2.0885 0
    endloop
  endfacet
  facet normal 0 0 -1
    outer loop
      vertex -0.940756 8.9507 0
      vertex -0.219509 2.0885 0
      vertex -0.648935 1.99722 0
    endloop
  endfacet
  facet normal 0 0 -1
    outer loop
      vertex -0.219509 2.0885 0
      vertex -0.940756 8.9507 0
      vertex 0.940756 8.9507 0
    endloop
  endfacet
  facet normal 0 0 -1
    outer loop
      vertex -2.78115 8.55951 0
      vertex -0.648935 1.99722 0
      vertex -1.05 1.81865 0
    endloop
  endfacet
  facet normal 0 0 -1
    outer loop
      vertex -4.5 7.79423 0
      vertex -1.05 1.81865 0
      vertex -1.40517 1.5606 0
    endloop
  endfacet
  facet normal 0 0 -1
    outer loop
      vertex -6.02217 6.6883 0
      vertex -1.40517 1.5606 0
      vertex -1.69894 1.23435 0
    endloop
  endfacet
  facet normal 0 0 -1
    outer loop
      vertex -7.28115 5.29007 0
      vertex -1.69894 1.23435 0
      vertex -1.91844 0.854146 0
    endloop
  endfacet
  facet normal 0 0 -1
    outer loop
      vertex -8.22191 3.66063 0
      vertex -1.91844 0.854146 0
      vertex -2.05411 0.436614 0
    endloop
  endfacet
  facet normal 0 0 -1
    outer loop
      vertex -0.648935 1.99722 0
      vertex -2.78115 8.55951 0
      vertex -0.940756 8.9507 0
    endloop
  endfacet
  facet normal 0 0 -1
    outer loop
      vertex -8.80333 1.8712 0
      vertex -2.05411 0.436614 0
      vertex -2.1 0 0
    endloop
  endfacet
  facet normal -0 0 -1
    outer loop
      vertex -1.69894 -1.23435 0
      vertex -7.28115 -5.29007 0
      vertex -1.91844 -0.854146 0
    endloop
  endfacet
  facet normal 0 0 -1
    outer loop
      vertex -1.05 1.81865 0
      vertex -4.5 7.79423 0
      vertex -2.78115 8.55951 0
    endloop
  endfacet
  facet normal 0 0 -1
    outer loop
      vertex -8.22191 -3.66063 0
      vertex -1.91844 -0.854146 0
      vertex -7.28115 -5.29007 0
    endloop
  endfacet
  facet normal -0 0 -1
    outer loop
      vertex -1.91844 -0.854146 0
      vertex -8.22191 -3.66063 0
      vertex -2.05411 -0.436614 0
    endloop
  endfacet
  facet normal 0 0 -1
    outer loop
      vertex -1.40517 1.5606 0
      vertex -6.02217 6.6883 0
      vertex -4.5 7.79423 0
    endloop
  endfacet
  facet normal 0 0 -1
    outer loop
      vertex -8.80333 -1.8712 0
      vertex -2.05411 -0.436614 0
      vertex -8.22191 -3.66063 0
    endloop
  endfacet
  facet normal 0 0 -1
    outer loop
      vertex -1.69894 1.23435 0
      vertex -7.28115 5.29007 0
      vertex -6.02217 6.6883 0
    endloop
  endfacet
  facet normal -0 0 -1
    outer loop
      vertex -2.05411 -0.436614 0
      vertex -8.80333 -1.8712 0
      vertex -2.1 0 0
    endloop
  endfacet
  facet normal 0 0 -1
    outer loop
      vertex -1.91844 0.854146 0
      vertex -8.22191 3.66063 0
      vertex -7.28115 5.29007 0
    endloop
  endfacet
  facet normal 0 0 -1
    outer loop
      vertex -9 0 0
      vertex -2.1 0 0
      vertex -8.80333 -1.8712 0
    endloop
  endfacet
  facet normal 0 0 -1
    outer loop
      vertex -2.05411 0.436614 0
      vertex -8.80333 1.8712 0
      vertex -8.22191 3.66063 0
    endloop
  endfacet
  facet normal 0 0 -1
    outer loop
      vertex -2.1 0 0
      vertex -9 0 0
      vertex -8.80333 1.8712 0
    endloop
  endfacet
  facet normal 0.866025 -0.5 0
    outer loop
      vertex 7.28115 -5.29007 3
      vertex 8.22191 -3.66063 0
      vertex 8.22191 -3.66063 3
    endloop
  endfacet
  facet normal 0.866025 -0.5 0
    outer loop
      vertex 8.22191 -3.66063 0
      vertex 7.28115 -5.29007 3
      vertex 7.28115 -5.29007 0
    endloop
  endfacet
  facet normal -0.866025 -0.5 0
    outer loop
      vertex -7.28115 -5.29007 0
      vertex -8.22191 -3.66063 3
      vertex -8.22191 -3.66063 0
    endloop
  endfacet
  facet normal -0.866025 -0.5 0
    outer loop
      vertex -8.22191 -3.66063 3
      vertex -7.28115 -5.29007 0
      vertex -7.28115 -5.29007 3
    endloop
  endfacet
  facet normal 0.587786 -0.809017 0
    outer loop
      vertex 4.5 -7.79423 0
      vertex 6.02217 -6.6883 3
      vertex 4.5 -7.79423 3
    endloop
  endfacet
  facet normal 0.587786 -0.809017 0
    outer loop
      vertex 6.02217 -6.6883 3
      vertex 4.5 -7.79423 0
      vertex 6.02217 -6.6883 0
    endloop
  endfacet
  facet normal -0.207912 -0.978148 0
    outer loop
      vertex -2.78115 -8.55951 0
      vertex -0.940756 -8.9507 3
      vertex -2.78115 -8.55951 3
    endloop
  endfacet
  facet normal -0.207912 -0.978148 -0
    outer loop
      vertex -0.940756 -8.9507 3
      vertex -2.78115 -8.55951 0
      vertex -0.940756 -8.9507 0
    endloop
  endfacet
  facet normal -0.743145 -0.669131 0
    outer loop
      vertex -6.02217 -6.6883 0
      vertex -7.28115 -5.29007 3
      vertex -7.28115 -5.29007 0
    endloop
  endfacet
  facet normal -0.743145 -0.669131 0
    outer loop
      vertex -7.28115 -5.29007 3
      vertex -6.02217 -6.6883 0
      vertex -6.02217 -6.6883 3
    endloop
  endfacet
  facet normal -0.951057 -0.309017 0
    outer loop
      vertex -8.22191 -3.66063 0
      vertex -8.80333 -1.8712 3
      vertex -8.80333 -1.8712 0
    endloop
  endfacet
  facet normal -0.951057 -0.309017 0
    outer loop
      vertex -8.80333 -1.8712 3
      vertex -8.22191 -3.66063 0
      vertex -8.22191 -3.66063 3
    endloop
  endfacet
  facet normal -0.994522 -0.104529 0
    outer loop
      vertex -8.80333 -1.8712 0
      vertex -9 0 3
      vertex -9 0 0
    endloop
  endfacet
  facet normal -0.994522 -0.104529 0
    outer loop
      vertex -9 0 3
      vertex -8.80333 -1.8712 0
      vertex -8.80333 -1.8712 3
    endloop
  endfacet
  facet normal 0.406736 -0.913546 0
    outer loop
      vertex 2.78115 -8.55951 0
      vertex 4.5 -7.79423 3
      vertex 2.78115 -8.55951 3
    endloop
  endfacet
  facet normal 0.406736 -0.913546 0
    outer loop
      vertex 4.5 -7.79423 3
      vertex 2.78115 -8.55951 0
      vertex 4.5 -7.79423 0
    endloop
  endfacet
  facet normal 0.207912 -0.978148 0
    outer loop
      vertex 0.940756 -8.9507 0
      vertex 2.78115 -8.55951 3
      vertex 0.940756 -8.9507 3
    endloop
  endfacet
  facet normal 0.207912 -0.978148 0
    outer loop
      vertex 2.78115 -8.55951 3
      vertex 0.940756 -8.9507 0
      vertex 2.78115 -8.55951 0
    endloop
  endfacet
  facet normal 0.743145 -0.669131 0
    outer loop
      vertex 6.02217 -6.6883 3
      vertex 7.28115 -5.29007 0
      vertex 7.28115 -5.29007 3
    endloop
  endfacet
  facet normal 0.743145 -0.669131 0
    outer loop
      vertex 7.28115 -5.29007 0
      vertex 6.02217 -6.6883 3
      vertex 6.02217 -6.6883 0
    endloop
  endfacet
  facet normal -0.406736 -0.913546 0
    outer loop
      vertex -4.5 -7.79423 0
      vertex -2.78115 -8.55951 3
      vertex -4.5 -7.79423 3
    endloop
  endfacet
  facet normal -0.406736 -0.913546 -0
    outer loop
      vertex -2.78115 -8.55951 3
      vertex -4.5 -7.79423 0
      vertex -2.78115 -8.55951 0
    endloop
  endfacet
  facet normal -0.587786 -0.809017 0
    outer loop
      vertex -6.02217 -6.6883 0
      vertex -4.5 -7.79423 3
      vertex -6.02217 -6.6883 3
    endloop
  endfacet
  facet normal -0.587786 -0.809017 -0
    outer loop
      vertex -4.5 -7.79423 3
      vertex -6.02217 -6.6883 0
      vertex -4.5 -7.79423 0
    endloop
  endfacet
  facet normal -0.951057 0.309017 0
    outer loop
      vertex -5.37981 1.14351 3
      vertex -5.0245 2.23705 12
      vertex -5.0245 2.23705 3
    endloop
  endfacet
  facet normal -0.951057 0.309017 0
    outer loop
      vertex -5.0245 2.23705 12
      vertex -5.37981 1.14351 3
      vertex -5.37981 1.14351 12
    endloop
  endfacet
  facet normal 0.866025 0.5 0
    outer loop
      vertex 5.0245 2.23705 12
      vertex 4.44959 3.23282 3
      vertex 4.44959 3.23282 12
    endloop
  endfacet
  facet normal 0.866025 0.5 0
    outer loop
      vertex 4.44959 3.23282 3
      vertex 5.0245 2.23705 12
      vertex 5.0245 2.23705 3
    endloop
  endfacet
  facet normal 0.951057 0.309017 0
    outer loop
      vertex 5.37981 1.14351 12
      vertex 5.0245 2.23705 3
      vertex 5.0245 2.23705 12
    endloop
  endfacet
  facet normal 0.951057 0.309017 0
    outer loop
      vertex 5.0245 2.23705 3
      vertex 5.37981 1.14351 12
      vertex 5.37981 1.14351 3
    endloop
  endfacet
  facet normal 0.207912 0.978148 -0
    outer loop
      vertex 1.69959 5.23081 3
      vertex 0.574906 5.46987 5
      vertex 1.69959 5.23081 5
    endloop
  endfacet
  facet normal 0.207912 0.978148 0
    outer loop
      vertex 0.574906 5.46987 5
      vertex 1.69959 5.23081 3
      vertex 0.574906 5.46987 3
    endloop
  endfacet
  facet normal 0.406737 0.913545 -0
    outer loop
      vertex 2.75 4.76314 3
      vertex 1.69959 5.23081 5
      vertex 2.75 4.76314 5
    endloop
  endfacet
  facet normal 0.406737 0.913545 0
    outer loop
      vertex 1.69959 5.23081 5
      vertex 2.75 4.76314 3
      vertex 1.69959 5.23081 3
    endloop
  endfacet
  facet normal -0.207912 0.978148 0
    outer loop
      vertex -0.574906 5.46987 3
      vertex -1.69959 5.23081 5
      vertex -0.574906 5.46987 5
    endloop
  endfacet
  facet normal -0.207912 0.978148 0
    outer loop
      vertex -1.69959 5.23081 5
      vertex -0.574906 5.46987 3
      vertex -1.69959 5.23081 3
    endloop
  endfacet
  facet normal -0.866025 0.5 0
    outer loop
      vertex -5.0245 2.23705 3
      vertex -4.44959 3.23282 12
      vertex -4.44959 3.23282 3
    endloop
  endfacet
  facet normal -0.866025 0.5 0
    outer loop
      vertex -4.44959 3.23282 12
      vertex -5.0245 2.23705 3
      vertex -5.0245 2.23705 12
    endloop
  endfacet
  facet normal 0.994522 -0.104529 0
    outer loop
      vertex 5.37981 -1.14351 12
      vertex 5.5 0 3
      vertex 5.5 0 12
    endloop
  endfacet
  facet normal 0.994522 -0.104529 0
    outer loop
      vertex 5.5 0 3
      vertex 5.37981 -1.14351 12
      vertex 5.37981 -1.14351 3
    endloop
  endfacet
  facet normal 0.743145 0.66913 0
    outer loop
      vertex 4 3.73214 12
      vertex 4.44959 3.23282 12
      vertex 4 3.73214 5
    endloop
  endfacet
  facet normal 0.743145 0.66913 0
    outer loop
      vertex 4 3.73214 5
      vertex 3.68022 4.0873 3
      vertex 3.68022 4.0873 5
    endloop
  endfacet
  facet normal 0.743145 0.66913 3.67029e-08
    outer loop
      vertex 4 3.73214 5
      vertex 4.44959 3.23282 3
      vertex 3.68022 4.0873 3
    endloop
  endfacet
  facet normal 0.743145 0.66913 -0
    outer loop
      vertex 4.44959 3.23282 3
      vertex 4 3.73214 5
      vertex 4.44959 3.23282 12
    endloop
  endfacet
  facet normal 0 1 -0
    outer loop
      vertex 0.574906 5.46987 3
      vertex -0.574906 5.46987 5
      vertex 0.574906 5.46987 5
    endloop
  endfacet
  facet normal 0 1 0
    outer loop
      vertex -0.574906 5.46987 5
      vertex 0.574906 5.46987 3
      vertex -0.574906 5.46987 3
    endloop
  endfacet
  facet normal 0.587785 0.809017 -0
    outer loop
      vertex 3.68022 4.0873 3
      vertex 2.75 4.76314 5
      vertex 3.68022 4.0873 5
    endloop
  endfacet
  facet normal 0.587785 0.809017 0
    outer loop
      vertex 2.75 4.76314 5
      vertex 3.68022 4.0873 3
      vertex 2.75 4.76314 3
    endloop
  endfacet
  facet normal -0.994522 0.104529 0
    outer loop
      vertex -5.5 0 3
      vertex -5.37981 1.14351 12
      vertex -5.37981 1.14351 3
    endloop
  endfacet
  facet normal -0.994522 0.104529 0
    outer loop
      vertex -5.37981 1.14351 12
      vertex -5.5 0 3
      vertex -5.5 0 12
    endloop
  endfacet
  facet normal -0.743145 0.66913 0
    outer loop
      vertex -3.68022 4.0873 3
      vertex -4 3.73214 5
      vertex -3.68022 4.0873 5
    endloop
  endfacet
  facet normal -0.743145 0.66913 3.67029e-08
    outer loop
      vertex -4.44959 3.23282 3
      vertex -4 3.73214 5
      vertex -3.68022 4.0873 3
    endloop
  endfacet
  facet normal -0.743145 0.66913 0
    outer loop
      vertex -4.44959 3.23282 12
      vertex -4 3.73214 5
      vertex -4.44959 3.23282 3
    endloop
  endfacet
  facet normal -0.743145 0.66913 0
    outer loop
      vertex -4 3.73214 5
      vertex -4.44959 3.23282 12
      vertex -4 3.73214 12
    endloop
  endfacet
  facet normal -0.406737 0.913545 0
    outer loop
      vertex -1.69959 5.23081 3
      vertex -2.75 4.76314 5
      vertex -1.69959 5.23081 5
    endloop
  endfacet
  facet normal -0.406737 0.913545 0
    outer loop
      vertex -2.75 4.76314 5
      vertex -1.69959 5.23081 3
      vertex -2.75 4.76314 3
    endloop
  endfacet
  facet normal -0.587785 0.809017 0
    outer loop
      vertex -2.75 4.76314 3
      vertex -3.68022 4.0873 5
      vertex -2.75 4.76314 5
    endloop
  endfacet
  facet normal -0.587785 0.809017 0
    outer loop
      vertex -3.68022 4.0873 5
      vertex -2.75 4.76314 3
      vertex -3.68022 4.0873 3
    endloop
  endfacet
  facet normal 0.994522 0.104529 0
    outer loop
      vertex 5.5 0 12
      vertex 5.37981 1.14351 3
      vertex 5.37981 1.14351 12
    endloop
  endfacet
  facet normal 0.994522 0.104529 0
    outer loop
      vertex 5.37981 1.14351 3
      vertex 5.5 0 12
      vertex 5.5 0 3
    endloop
  endfacet
  facet normal 0.587785 -0.809017 0
    outer loop
      vertex 2.75 -4.76314 3
      vertex 3.68022 -4.0873 5
      vertex 2.75 -4.76314 5
    endloop
  endfacet
  facet normal 0.587785 -0.809017 0
    outer loop
      vertex 3.68022 -4.0873 5
      vertex 2.75 -4.76314 3
      vertex 3.68022 -4.0873 3
    endloop
  endfacet
  facet normal 0.951057 -0.309017 0
    outer loop
      vertex 5.0245 -2.23705 12
      vertex 5.37981 -1.14351 3
      vertex 5.37981 -1.14351 12
    endloop
  endfacet
  facet normal 0.951057 -0.309017 0
    outer loop
      vertex 5.37981 -1.14351 3
      vertex 5.0245 -2.23705 12
      vertex 5.0245 -2.23705 3
    endloop
  endfacet
  facet normal -0 0 1
    outer loop
      vertex -5.37981 1.14351 12
      vertex -2.05411 0.436614 12
      vertex -5.0245 2.23705 12
    endloop
  endfacet
  facet normal 0 0 1
    outer loop
      vertex -2.05411 0.436614 12
      vertex -5.37981 1.14351 12
      vertex -2.1 0 12
    endloop
  endfacet
  facet normal 0 0 1
    outer loop
      vertex -5.5 0 12
      vertex -2.1 0 12
      vertex -5.37981 1.14351 12
    endloop
  endfacet
  facet normal 0 0 1
    outer loop
      vertex -2.1 0 12
      vertex -4.44959 -3.23282 12
      vertex -4 -3.73214 12
    endloop
  endfacet
  facet normal 0 -0 1
    outer loop
      vertex -5.0245 -2.23705 12
      vertex -2.1 0 12
      vertex -5.37981 -1.14351 12
    endloop
  endfacet
  facet normal 0 -0 1
    outer loop
      vertex -4.44959 -3.23282 12
      vertex -2.1 0 12
      vertex -5.0245 -2.23705 12
    endloop
  endfacet
  facet normal 0 0 1
    outer loop
      vertex -2.1 0 12
      vertex -5.5 0 12
      vertex -5.37981 -1.14351 12
    endloop
  endfacet
  facet normal 0 0 1
    outer loop
      vertex -4 3.73214 12
      vertex 4 3.73214 12
      vertex 4 14 12
    endloop
  endfacet
  facet normal 0 -0 1
    outer loop
      vertex 2.1 0 12
      vertex 4 3.73214 12
      vertex 2.05411 0.436614 12
    endloop
  endfacet
  facet normal -0 0 1
    outer loop
      vertex 2.05411 -0.436614 12
      vertex 4 -3.73214 12
      vertex 2.1 0 12
    endloop
  endfacet
  facet normal 0 0 1
    outer loop
      vertex 4 3.73214 12
      vertex 2.1 0 12
      vertex 4 -3.73214 12
    endloop
  endfacet
  facet normal 0 0 1
    outer loop
      vertex 4 3.73214 12
      vertex 1.91844 0.854146 12
      vertex 2.05411 0.436614 12
    endloop
  endfacet
  facet normal 0 0 1
    outer loop
      vertex 4 3.73214 12
      vertex 1.69894 1.23435 12
      vertex 1.91844 0.854146 12
    endloop
  endfacet
  facet normal 0 0 1
    outer loop
      vertex 4 3.73214 12
      vertex 1.40517 1.5606 12
      vertex 1.69894 1.23435 12
    endloop
  endfacet
  facet normal 0 0 1
    outer loop
      vertex 4 3.73214 12
      vertex 1.05 1.81865 12
      vertex 1.40517 1.5606 12
    endloop
  endfacet
  facet normal 0 0 1
    outer loop
      vertex 4 3.73214 12
      vertex 0.648935 1.99722 12
      vertex 1.05 1.81865 12
    endloop
  endfacet
  facet normal 0 0 1
    outer loop
      vertex 4 3.73214 12
      vertex 0.219509 2.0885 12
      vertex 0.648935 1.99722 12
    endloop
  endfacet
  facet normal 0 0 1
    outer loop
      vertex 4 3.73214 12
      vertex -4 3.73214 12
      vertex 0.219509 2.0885 12
    endloop
  endfacet
  facet normal 0 0 1
    outer loop
      vertex 0.219509 2.0885 12
      vertex -4 3.73214 12
      vertex -0.219509 2.0885 12
    endloop
  endfacet
  facet normal 0 0 1
    outer loop
      vertex -0.219509 2.0885 12
      vertex -4 3.73214 12
      vertex -0.648935 1.99722 12
    endloop
  endfacet
  facet normal 0 0 1
    outer loop
      vertex -0.648935 1.99722 12
      vertex -4 3.73214 12
      vertex -1.05 1.81865 12
    endloop
  endfacet
  facet normal 0 0 1
    outer loop
      vertex -1.05 1.81865 12
      vertex -4 3.73214 12
      vertex -1.40517 1.5606 12
    endloop
  endfacet
  facet normal 0 0 1
    outer loop
      vertex -1.40517 1.5606 12
      vertex -4 3.73214 12
      vertex -1.69894 1.23435 12
    endloop
  endfacet
  facet normal 0 0 1
    outer loop
      vertex -1.69894 1.23435 12
      vertex -4.44959 3.23282 12
      vertex -1.91844 0.854146 12
    endloop
  endfacet
  facet normal -0 0 1
    outer loop
      vertex -4.44959 3.23282 12
      vertex -1.69894 1.23435 12
      vertex -4 3.73214 12
    endloop
  endfacet
  facet normal 0 0 1
    outer loop
      vertex -4 3.73214 12
      vertex 4 14 12
      vertex -4 14 12
    endloop
  endfacet
  facet normal 0 0 1
    outer loop
      vertex 5.37981 1.14351 12
      vertex 5.37981 -1.14351 12
      vertex 5.5 0 12
    endloop
  endfacet
  facet normal 0 0 1
    outer loop
      vertex 4 3.73214 12
      vertex 5.37981 1.14351 12
      vertex 5.0245 2.23705 12
    endloop
  endfacet
  facet normal 0 0 1
    outer loop
      vertex 5.37981 1.14351 12
      vertex 4 3.73214 12
      vertex 5.37981 -1.14351 12
    endloop
  endfacet
  facet normal 0 0 1
    outer loop
      vertex 4 3.73214 12
      vertex 5.0245 2.23705 12
      vertex 4.44959 3.23282 12
    endloop
  endfacet
  facet normal 0 0 1
    outer loop
      vertex 4 -3.73214 12
      vertex 5.37981 -1.14351 12
      vertex 4 3.73214 12
    endloop
  endfacet
  facet normal 0 0 1
    outer loop
      vertex 5.37981 -1.14351 12
      vertex 4 -3.73214 12
      vertex 5.0245 -2.23705 12
    endloop
  endfacet
  facet normal 0 0 1
    outer loop
      vertex 5.0245 -2.23705 12
      vertex 4 -3.73214 12
      vertex 4.44959 -3.23282 12
    endloop
  endfacet
  facet normal -0 0 1
    outer loop
      vertex 1.91844 -0.854146 12
      vertex 4 -3.73214 12
      vertex 2.05411 -0.436614 12
    endloop
  endfacet
  facet normal -0 0 1
    outer loop
      vertex 1.69894 -1.23435 12
      vertex 4 -3.73214 12
      vertex 1.91844 -0.854146 12
    endloop
  endfacet
  facet normal -0 0 1
    outer loop
      vertex 1.40517 -1.5606 12
      vertex 4 -3.73214 12
      vertex 1.69894 -1.23435 12
    endloop
  endfacet
  facet normal -0 0 1
    outer loop
      vertex 1.05 -1.81865 12
      vertex 4 -3.73214 12
      vertex 1.40517 -1.5606 12
    endloop
  endfacet
  facet normal -0 0 1
    outer loop
      vertex 0.648935 -1.99722 12
      vertex 4 -3.73214 12
      vertex 1.05 -1.81865 12
    endloop
  endfacet
  facet normal -0 0 1
    outer loop
      vertex 0.219509 -2.0885 12
      vertex 4 -3.73214 12
      vertex 0.648935 -1.99722 12
    endloop
  endfacet
  facet normal 0 0 1
    outer loop
      vertex -4 -3.73214 12
      vertex 4 -3.73214 12
      vertex 0.219509 -2.0885 12
    endloop
  endfacet
  facet normal 0 0 1
    outer loop
      vertex -4 -3.73214 12
      vertex 0.219509 -2.0885 12
      vertex -0.219509 -2.0885 12
    endloop
  endfacet
  facet normal 0 0 1
    outer loop
      vertex -4 -3.73214 12
      vertex -0.219509 -2.0885 12
      vertex -0.648935 -1.99722 12
    endloop
  endfacet
  facet normal 0 0 1
    outer loop
      vertex -4 -3.73214 12
      vertex -0.648935 -1.99722 12
      vertex -1.05 -1.81865 12
    endloop
  endfacet
  facet normal 0 0 1
    outer loop
      vertex -4 -3.73214 12
      vertex -1.05 -1.81865 12
      vertex -1.40517 -1.5606 12
    endloop
  endfacet
  facet normal 0 0 1
    outer loop
      vertex -4 -3.73214 12
      vertex -1.40517 -1.5606 12
      vertex -1.69894 -1.23435 12
    endloop
  endfacet
  facet normal 0 0 1
    outer loop
      vertex -4 -3.73214 12
      vertex -1.69894 -1.23435 12
      vertex -1.91844 -0.854146 12
    endloop
  endfacet
  facet normal -0 0 1
    outer loop
      vertex -5.0245 2.23705 12
      vertex -1.91844 0.854146 12
      vertex -4.44959 3.23282 12
    endloop
  endfacet
  facet normal 0 0 1
    outer loop
      vertex -1.91844 0.854146 12
      vertex -5.0245 2.23705 12
      vertex -2.05411 0.436614 12
    endloop
  endfacet
  facet normal 0 0 1
    outer loop
      vertex -2.1 0 12
      vertex -4 -3.73214 12
      vertex -2.05411 -0.436614 12
    endloop
  endfacet
  facet normal 0 0 1
    outer loop
      vertex -2.05411 -0.436614 12
      vertex -4 -3.73214 12
      vertex -1.91844 -0.854146 12
    endloop
  endfacet
  facet normal 0 0 1
    outer loop
      vertex 4 -3.73214 12
      vertex -4 -3.73214 12
      vertex 4 -14 12
    endloop
  endfacet
  facet normal 0 0 1
    outer loop
      vertex 4 -14 12
      vertex -4 -3.73214 12
      vertex -4 -14 12
    endloop
  endfacet
  facet normal -0.207912 -0.978148 0
    outer loop
      vertex -1.69959 -5.23081 3
      vertex -0.574906 -5.46987 5
      vertex -1.69959 -5.23081 5
    endloop
  endfacet
  facet normal -0.207912 -0.978148 -0
    outer loop
      vertex -0.574906 -5.46987 5
      vertex -1.69959 -5.23081 3
      vertex -0.574906 -5.46987 3
    endloop
  endfacet
  facet normal -0.994522 -0.104529 0
    outer loop
      vertex -5.37981 -1.14351 3
      vertex -5.5 0 12
      vertex -5.5 0 3
    endloop
  endfacet
  facet normal -0.994522 -0.104529 0
    outer loop
      vertex -5.5 0 12
      vertex -5.37981 -1.14351 3
      vertex -5.37981 -1.14351 12
    endloop
  endfacet
  facet normal 0.207912 -0.978148 0
    outer loop
      vertex 0.574906 -5.46987 3
      vertex 1.69959 -5.23081 5
      vertex 0.574906 -5.46987 5
    endloop
  endfacet
  facet normal 0.207912 -0.978148 0
    outer loop
      vertex 1.69959 -5.23081 5
      vertex 0.574906 -5.46987 3
      vertex 1.69959 -5.23081 3
    endloop
  endfacet
  facet normal 0.406737 -0.913545 0
    outer loop
      vertex 1.69959 -5.23081 3
      vertex 2.75 -4.76314 5
      vertex 1.69959 -5.23081 5
    endloop
  endfacet
  facet normal 0.406737 -0.913545 0
    outer loop
      vertex 2.75 -4.76314 5
      vertex 1.69959 -5.23081 3
      vertex 2.75 -4.76314 3
    endloop
  endfacet
  facet normal 0.743145 -0.66913 0
    outer loop
      vertex 4 -3.73214 5
      vertex 4.44959 -3.23282 12
      vertex 4 -3.73214 12
    endloop
  endfacet
  facet normal 0.743145 -0.66913 0
    outer loop
      vertex 4.44959 -3.23282 12
      vertex 4 -3.73214 5
      vertex 4.44959 -3.23282 3
    endloop
  endfacet
  facet normal 0.743145 -0.66913 0
    outer loop
      vertex 3.68022 -4.0873 3
      vertex 4 -3.73214 5
      vertex 3.68022 -4.0873 5
    endloop
  endfacet
  facet normal 0.743145 -0.66913 3.67029e-08
    outer loop
      vertex 4 -3.73214 5
      vertex 3.68022 -4.0873 3
      vertex 4.44959 -3.23282 3
    endloop
  endfacet
  facet normal 0.866025 -0.5 0
    outer loop
      vertex 4.44959 -3.23282 12
      vertex 5.0245 -2.23705 3
      vertex 5.0245 -2.23705 12
    endloop
  endfacet
  facet normal 0.866025 -0.5 0
    outer loop
      vertex 5.0245 -2.23705 3
      vertex 4.44959 -3.23282 12
      vertex 4.44959 -3.23282 3
    endloop
  endfacet
  facet normal -0.587785 -0.809017 0
    outer loop
      vertex -3.68022 -4.0873 3
      vertex -2.75 -4.76314 5
      vertex -3.68022 -4.0873 5
    endloop
  endfacet
  facet normal -0.587785 -0.809017 -0
    outer loop
      vertex -2.75 -4.76314 5
      vertex -3.68022 -4.0873 3
      vertex -2.75 -4.76314 3
    endloop
  endfacet
  facet normal 0 -1 0
    outer loop
      vertex -0.574906 -5.46987 3
      vertex 0.574906 -5.46987 5
      vertex -0.574906 -5.46987 5
    endloop
  endfacet
  facet normal 0 -1 -0
    outer loop
      vertex 0.574906 -5.46987 5
      vertex -0.574906 -5.46987 3
      vertex 0.574906 -5.46987 3
    endloop
  endfacet
  facet normal -0.406737 -0.913545 0
    outer loop
      vertex -2.75 -4.76314 3
      vertex -1.69959 -5.23081 5
      vertex -2.75 -4.76314 5
    endloop
  endfacet
  facet normal -0.406737 -0.913545 -0
    outer loop
      vertex -1.69959 -5.23081 5
      vertex -2.75 -4.76314 3
      vertex -1.69959 -5.23081 3
    endloop
  endfacet
  facet normal -0.951057 -0.309017 0
    outer loop
      vertex -5.0245 -2.23705 3
      vertex -5.37981 -1.14351 12
      vertex -5.37981 -1.14351 3
    endloop
  endfacet
  facet normal -0.951057 -0.309017 0
    outer loop
      vertex -5.37981 -1.14351 12
      vertex -5.0245 -2.23705 3
      vertex -5.0245 -2.23705 12
    endloop
  endfacet
  facet normal -0.743145 -0.66913 0
    outer loop
      vertex -4.44959 -3.23282 3
      vertex -4 -3.73214 5
      vertex -4.44959 -3.23282 12
    endloop
  endfacet
  facet normal -0.743145 -0.66913 3.67029e-08
    outer loop
      vertex -3.68022 -4.0873 3
      vertex -4 -3.73214 5
      vertex -4.44959 -3.23282 3
    endloop
  endfacet
  facet normal -0.743145 -0.66913 0
    outer loop
      vertex -4 -3.73214 5
      vertex -3.68022 -4.0873 3
      vertex -3.68022 -4.0873 5
    endloop
  endfacet
  facet normal -0.743145 -0.66913 0
    outer loop
      vertex -4.44959 -3.23282 12
      vertex -4 -3.73214 5
      vertex -4 -3.73214 12
    endloop
  endfacet
  facet normal -0.866025 -0.5 0
    outer loop
      vertex -4.44959 -3.23282 3
      vertex -5.0245 -2.23705 12
      vertex -5.0245 -2.23705 3
    endloop
  endfacet
  facet normal -0.866025 -0.5 0
    outer loop
      vertex -5.0245 -2.23705 12
      vertex -4.44959 -3.23282 3
      vertex -4.44959 -3.23282 12
    endloop
  endfacet
  facet normal -1 0 0
    outer loop
      vertex -4 -14 5
      vertex -4 -3.73214 12
      vertex -4 -3.73214 5
    endloop
  endfacet
  facet normal -1 -0 0
    outer loop
      vertex -4 -3.73214 12
      vertex -4 -14 5
      vertex -4 -14 12
    endloop
  endfacet
  facet normal -1 0 0
    outer loop
      vertex -4 3.73214 5
      vertex -4 14 12
      vertex -4 14 5
    endloop
  endfacet
  facet normal -1 -0 0
    outer loop
      vertex -4 14 12
      vertex -4 3.73214 5
      vertex -4 3.73214 12
    endloop
  endfacet
  facet normal 1 -0 0
    outer loop
      vertex 4 -14 12
      vertex 4 -3.73214 5
      vertex 4 -3.73214 12
    endloop
  endfacet
  facet normal 1 0 0
    outer loop
      vertex 4 -3.73214 5
      vertex 4 -14 12
      vertex 4 -14 5
    endloop
  endfacet
  facet normal 1 -0 0
    outer loop
      vertex 4 3.73214 12
      vertex 4 14 5
      vertex 4 14 12
    endloop
  endfacet
  facet normal 1 0 0
    outer loop
      vertex 4 14 5
      vertex 4 3.73214 12
      vertex 4 3.73214 5
    endloop
  endfacet
  facet normal 0 0 -1
    outer loop
      vertex 3.68022 4.0873 5
      vertex 4 14 5
      vertex 4 3.73214 5
    endloop
  endfacet
  facet normal 0 0 -1
    outer loop
      vertex 2.75 4.76314 5
      vertex 4 14 5
      vertex 3.68022 4.0873 5
    endloop
  endfacet
  facet normal 0 0 -1
    outer loop
      vertex 1.69959 5.23081 5
      vertex 4 14 5
      vertex 2.75 4.76314 5
    endloop
  endfacet
  facet normal 0 0 -1
    outer loop
      vertex 0.574906 5.46987 5
      vertex 4 14 5
      vertex 1.69959 5.23081 5
    endloop
  endfacet
  facet normal 0 0 -1
    outer loop
      vertex -0.574906 5.46987 5
      vertex 4 14 5
      vertex 0.574906 5.46987 5
    endloop
  endfacet
  facet normal 0 0 -1
    outer loop
      vertex -4 14 5
      vertex -0.574906 5.46987 5
      vertex -1.69959 5.23081 5
    endloop
  endfacet
  facet normal 0 0 -1
    outer loop
      vertex -4 14 5
      vertex -1.69959 5.23081 5
      vertex -2.75 4.76314 5
    endloop
  endfacet
  facet normal 0 0 -1
    outer loop
      vertex -4 14 5
      vertex -2.75 4.76314 5
      vertex -3.68022 4.0873 5
    endloop
  endfacet
  facet normal 0 0 -1
    outer loop
      vertex -4 14 5
      vertex -3.68022 4.0873 5
      vertex -4 3.73214 5
    endloop
  endfacet
  facet normal 0 0 -1
    outer loop
      vertex -0.574906 5.46987 5
      vertex -4 14 5
      vertex 4 14 5
    endloop
  endfacet
  facet normal 0 0 -1
    outer loop
      vertex 4 -14 5
      vertex 3.68022 -4.0873 5
      vertex 4 -3.73214 5
    endloop
  endfacet
  facet normal 0 0 -1
    outer loop
      vertex 4 -14 5
      vertex 2.75 -4.76314 5
      vertex 3.68022 -4.0873 5
    endloop
  endfacet
  facet normal 0 0 -1
    outer loop
      vertex 4 -14 5
      vertex 1.69959 -5.23081 5
      vertex 2.75 -4.76314 5
    endloop
  endfacet
  facet normal 0 0 -1
    outer loop
      vertex 4 -14 5
      vertex 0.574906 -5.46987 5
      vertex 1.69959 -5.23081 5
    endloop
  endfacet
  facet normal 0 0 -1
    outer loop
      vertex 4 -14 5
      vertex -0.574906 -5.46987 5
      vertex 0.574906 -5.46987 5
    endloop
  endfacet
  facet normal 0 0 -1
    outer loop
      vertex -4 -14 5
      vertex -0.574906 -5.46987 5
      vertex 4 -14 5
    endloop
  endfacet
  facet normal -0 0 -1
    outer loop
      vertex -0.574906 -5.46987 5
      vertex -4 -14 5
      vertex -1.69959 -5.23081 5
    endloop
  endfacet
  facet normal -0 0 -1
    outer loop
      vertex -1.69959 -5.23081 5
      vertex -4 -14 5
      vertex -2.75 -4.76314 5
    endloop
  endfacet
  facet normal -0 0 -1
    outer loop
      vertex -2.75 -4.76314 5
      vertex -4 -14 5
      vertex -3.68022 -4.0873 5
    endloop
  endfacet
  facet normal -0 0 -1
    outer loop
      vertex -3.68022 -4.0873 5
      vertex -4 -14 5
      vertex -4 -3.73214 5
    endloop
  endfacet
  facet normal 0 -1 0
    outer loop
      vertex -4 -14 5
      vertex 4 -14 12
      vertex -4 -14 12
    endloop
  endfacet
  facet normal 0 -1 -0
    outer loop
      vertex 4 -14 12
      vertex -4 -14 5
      vertex 4 -14 5
    endloop
  endfacet
  facet normal 0 1 -0
    outer loop
      vertex 4 14 5
      vertex -4 14 12
      vertex 4 14 12
    endloop
  endfacet
  facet normal 0 1 0
    outer loop
      vertex -4 14 12
      vertex 4 14 5
      vertex -4 14 5
    endloop
  endfacet
  facet normal -0.994522 -0.104528 0
    outer loop
      vertex 2.1 0 0
      vertex 2.05411 0.436614 12
      vertex 2.05411 0.436614 0
    endloop
  endfacet
  facet normal -0.994522 -0.104528 0
    outer loop
      vertex 2.05411 0.436614 12
      vertex 2.1 0 0
      vertex 2.1 0 12
    endloop
  endfacet
  facet normal 0.994522 -0.104528 0
    outer loop
      vertex -2.1 0 12
      vertex -2.05411 0.436614 0
      vertex -2.05411 0.436614 12
    endloop
  endfacet
  facet normal 0.994522 -0.104528 0
    outer loop
      vertex -2.05411 0.436614 0
      vertex -2.1 0 12
      vertex -2.1 0 0
    endloop
  endfacet
  facet normal 0 -1 0
    outer loop
      vertex -0.219509 2.0885 0
      vertex 0.219509 2.0885 12
      vertex -0.219509 2.0885 12
    endloop
  endfacet
  facet normal 0 -1 -0
    outer loop
      vertex 0.219509 2.0885 12
      vertex -0.219509 2.0885 0
      vertex 0.219509 2.0885 0
    endloop
  endfacet
  facet normal 0 1 -0
    outer loop
      vertex 0.219509 -2.0885 0
      vertex -0.219509 -2.0885 12
      vertex 0.219509 -2.0885 12
    endloop
  endfacet
  facet normal 0 1 0
    outer loop
      vertex -0.219509 -2.0885 12
      vertex 0.219509 -2.0885 0
      vertex -0.219509 -2.0885 0
    endloop
  endfacet
  facet normal -0.743146 -0.66913 0
    outer loop
      vertex 1.69894 1.23435 0
      vertex 1.40517 1.5606 12
      vertex 1.40517 1.5606 0
    endloop
  endfacet
  facet normal -0.743146 -0.66913 0
    outer loop
      vertex 1.40517 1.5606 12
      vertex 1.69894 1.23435 0
      vertex 1.69894 1.23435 12
    endloop
  endfacet
  facet normal 0.587784 -0.809018 0
    outer loop
      vertex -1.40517 1.5606 0
      vertex -1.05 1.81865 12
      vertex -1.40517 1.5606 12
    endloop
  endfacet
  facet normal 0.587784 -0.809018 0
    outer loop
      vertex -1.05 1.81865 12
      vertex -1.40517 1.5606 0
      vertex -1.05 1.81865 0
    endloop
  endfacet
  facet normal 0.207911 -0.978148 0
    outer loop
      vertex -0.648935 1.99722 0
      vertex -0.219509 2.0885 12
      vertex -0.648935 1.99722 12
    endloop
  endfacet
  facet normal 0.207911 -0.978148 0
    outer loop
      vertex -0.219509 2.0885 12
      vertex -0.648935 1.99722 0
      vertex -0.219509 2.0885 0
    endloop
  endfacet
  facet normal -0.866026 -0.499999 0
    outer loop
      vertex 1.91844 0.854146 0
      vertex 1.69894 1.23435 12
      vertex 1.69894 1.23435 0
    endloop
  endfacet
  facet normal -0.866026 -0.499999 0
    outer loop
      vertex 1.69894 1.23435 12
      vertex 1.91844 0.854146 0
      vertex 1.91844 0.854146 12
    endloop
  endfacet
  facet normal -0.951056 -0.309018 0
    outer loop
      vertex 2.05411 0.436614 0
      vertex 1.91844 0.854146 12
      vertex 1.91844 0.854146 0
    endloop
  endfacet
  facet normal -0.951056 -0.309018 0
    outer loop
      vertex 1.91844 0.854146 12
      vertex 2.05411 0.436614 0
      vertex 2.05411 0.436614 12
    endloop
  endfacet
  facet normal -0.406736 -0.913546 0
    outer loop
      vertex 0.648935 1.99722 0
      vertex 1.05 1.81865 12
      vertex 0.648935 1.99722 12
    endloop
  endfacet
  facet normal -0.406736 -0.913546 -0
    outer loop
      vertex 1.05 1.81865 12
      vertex 0.648935 1.99722 0
      vertex 1.05 1.81865 0
    endloop
  endfacet
  facet normal -0.207911 -0.978148 0
    outer loop
      vertex 0.219509 2.0885 0
      vertex 0.648935 1.99722 12
      vertex 0.219509 2.0885 12
    endloop
  endfacet
  facet normal -0.207911 -0.978148 -0
    outer loop
      vertex 0.648935 1.99722 12
      vertex 0.219509 2.0885 0
      vertex 0.648935 1.99722 0
    endloop
  endfacet
  facet normal -0.587784 -0.809018 0
    outer loop
      vertex 1.05 1.81865 0
      vertex 1.40517 1.5606 12
      vertex 1.05 1.81865 12
    endloop
  endfacet
  facet normal -0.587784 -0.809018 -0
    outer loop
      vertex 1.40517 1.5606 12
      vertex 1.05 1.81865 0
      vertex 1.40517 1.5606 0
    endloop
  endfacet
  facet normal 0.866026 -0.499999 0
    outer loop
      vertex -1.91844 0.854146 12
      vertex -1.69894 1.23435 0
      vertex -1.69894 1.23435 12
    endloop
  endfacet
  facet normal 0.866026 -0.499999 0
    outer loop
      vertex -1.69894 1.23435 0
      vertex -1.91844 0.854146 12
      vertex -1.91844 0.854146 0
    endloop
  endfacet
  facet normal 0.743146 -0.66913 0
    outer loop
      vertex -1.69894 1.23435 12
      vertex -1.40517 1.5606 0
      vertex -1.40517 1.5606 12
    endloop
  endfacet
  facet normal 0.743146 -0.66913 0
    outer loop
      vertex -1.40517 1.5606 0
      vertex -1.69894 1.23435 12
      vertex -1.69894 1.23435 0
    endloop
  endfacet
  facet normal 0.951056 -0.309018 0
    outer loop
      vertex -2.05411 0.436614 12
      vertex -1.91844 0.854146 0
      vertex -1.91844 0.854146 12
    endloop
  endfacet
  facet normal 0.951056 -0.309018 0
    outer loop
      vertex -1.91844 0.854146 0
      vertex -2.05411 0.436614 12
      vertex -2.05411 0.436614 0
    endloop
  endfacet
  facet normal 0.406736 -0.913546 0
    outer loop
      vertex -1.05 1.81865 0
      vertex -0.648935 1.99722 12
      vertex -1.05 1.81865 12
    endloop
  endfacet
  facet normal 0.406736 -0.913546 0
    outer loop
      vertex -0.648935 1.99722 12
      vertex -1.05 1.81865 0
      vertex -0.648935 1.99722 0
    endloop
  endfacet
  facet normal -0.994522 0.104528 0
    outer loop
      vertex 2.05411 -0.436614 0
      vertex 2.1 0 12
      vertex 2.1 0 0
    endloop
  endfacet
  facet normal -0.994522 0.104528 0
    outer loop
      vertex 2.1 0 12
      vertex 2.05411 -0.436614 0
      vertex 2.05411 -0.436614 12
    endloop
  endfacet
  facet normal -0.207911 0.978148 0
    outer loop
      vertex 0.648935 -1.99722 0
      vertex 0.219509 -2.0885 12
      vertex 0.648935 -1.99722 12
    endloop
  endfacet
  facet normal -0.207911 0.978148 0
    outer loop
      vertex 0.219509 -2.0885 12
      vertex 0.648935 -1.99722 0
      vertex 0.219509 -2.0885 0
    endloop
  endfacet
  facet normal -0.743146 0.66913 0
    outer loop
      vertex 1.40517 -1.5606 0
      vertex 1.69894 -1.23435 12
      vertex 1.69894 -1.23435 0
    endloop
  endfacet
  facet normal -0.743146 0.66913 0
    outer loop
      vertex 1.69894 -1.23435 12
      vertex 1.40517 -1.5606 0
      vertex 1.40517 -1.5606 12
    endloop
  endfacet
  facet normal -0.951056 0.309018 0
    outer loop
      vertex 1.91844 -0.854146 0
      vertex 2.05411 -0.436614 12
      vertex 2.05411 -0.436614 0
    endloop
  endfacet
  facet normal -0.951056 0.309018 0
    outer loop
      vertex 2.05411 -0.436614 12
      vertex 1.91844 -0.854146 0
      vertex 1.91844 -0.854146 12
    endloop
  endfacet
  facet normal -0.866026 0.499999 0
    outer loop
      vertex 1.69894 -1.23435 0
      vertex 1.91844 -0.854146 12
      vertex 1.91844 -0.854146 0
    endloop
  endfacet
  facet normal -0.866026 0.499999 0
    outer loop
      vertex 1.91844 -0.854146 12
      vertex 1.69894 -1.23435 0
      vertex 1.69894 -1.23435 12
    endloop
  endfacet
  facet normal 0.866026 0.499999 0
    outer loop
      vertex -1.69894 -1.23435 12
      vertex -1.91844 -0.854146 0
      vertex -1.91844 -0.854146 12
    endloop
  endfacet
  facet normal 0.866026 0.499999 0
    outer loop
      vertex -1.91844 -0.854146 0
      vertex -1.69894 -1.23435 12
      vertex -1.69894 -1.23435 0
    endloop
  endfacet
  facet normal 0.994522 0.104528 0
    outer loop
      vertex -2.05411 -0.436614 12
      vertex -2.1 0 0
      vertex -2.1 0 12
    endloop
  endfacet
  facet normal 0.994522 0.104528 0
    outer loop
      vertex -2.1 0 0
      vertex -2.05411 -0.436614 12
      vertex -2.05411 -0.436614 0
    endloop
  endfacet
  facet normal -0.587784 0.809018 0
    outer loop
      vertex 1.40517 -1.5606 0
      vertex 1.05 -1.81865 12
      vertex 1.40517 -1.5606 12
    endloop
  endfacet
  facet normal -0.587784 0.809018 0
    outer loop
      vertex 1.05 -1.81865 12
      vertex 1.40517 -1.5606 0
      vertex 1.05 -1.81865 0
    endloop
  endfacet
  facet normal -0.406736 0.913546 0
    outer loop
      vertex 1.05 -1.81865 0
      vertex 0.648935 -1.99722 12
      vertex 1.05 -1.81865 12
    endloop
  endfacet
  facet normal -0.406736 0.913546 0
    outer loop
      vertex 0.648935 -1.99722 12
      vertex 1.05 -1.81865 0
      vertex 0.648935 -1.99722 0
    endloop
  endfacet
  facet normal 0.207911 0.978148 -0
    outer loop
      vertex -0.219509 -2.0885 0
      vertex -0.648935 -1.99722 12
      vertex -0.219509 -2.0885 12
    endloop
  endfacet
  facet normal 0.207911 0.978148 0
    outer loop
      vertex -0.648935 -1.99722 12
      vertex -0.219509 -2.0885 0
      vertex -0.648935 -1.99722 0
    endloop
  endfacet
  facet normal 0.587784 0.809018 -0
    outer loop
      vertex -1.05 -1.81865 0
      vertex -1.40517 -1.5606 12
      vertex -1.05 -1.81865 12
    endloop
  endfacet
  facet normal 0.587784 0.809018 0
    outer loop
      vertex -1.40517 -1.5606 12
      vertex -1.05 -1.81865 0
      vertex -1.40517 -1.5606 0
    endloop
  endfacet
  facet normal 0.743146 0.66913 0
    outer loop
      vertex -1.40517 -1.5606 12
      vertex -1.69894 -1.23435 0
      vertex -1.69894 -1.23435 12
    endloop
  endfacet
  facet normal 0.743146 0.66913 0
    outer loop
      vertex -1.69894 -1.23435 0
      vertex -1.40517 -1.5606 12
      vertex -1.40517 -1.5606 0
    endloop
  endfacet
  facet normal 0.951056 0.309018 0
    outer loop
      vertex -1.91844 -0.854146 12
      vertex -2.05411 -0.436614 0
      vertex -2.05411 -0.436614 12
    endloop
  endfacet
  facet normal 0.951056 0.309018 0
    outer loop
      vertex -2.05411 -0.436614 0
      vertex -1.91844 -0.854146 12
      vertex -1.91844 -0.854146 0
    endloop
  endfacet
  facet normal 0.406736 0.913546 -0
    outer loop
      vertex -0.648935 -1.99722 0
      vertex -1.05 -1.81865 12
      vertex -0.648935 -1.99722 12
    endloop
  endfacet
  facet normal 0.406736 0.913546 0
    outer loop
      vertex -1.05 -1.81865 12
      vertex -0.648935 -1.99722 0
      vertex -1.05 -1.81865 0
    endloop
  endfacet
endsolid OpenSCAD_Model
