solid OpenSCAD_Model
  facet normal -1 0 0
    outer loop
      vertex -20.5 -20.5 -2
      vertex -20.5 20.5 2
      vertex -20.5 20.5 -2
    endloop
  endfacet
  facet normal -1 -0 0
    outer loop
      vertex -20.5 20.5 2
      vertex -20.5 -20.5 -2
      vertex -20.5 -20.5 2
    endloop
  endfacet
  facet normal 0 0 1
    outer loop
      vertex 20.5 20.5 2
      vertex 19 19 2
      vertex 20.5 -20.5 2
    endloop
  endfacet
  facet normal 0 0 1
    outer loop
      vertex 20.5 20.5 2
      vertex -19 19 2
      vertex 19 19 2
    endloop
  endfacet
  facet normal 0 0 1
    outer loop
      vertex -19 19 2
      vertex -20.5 20.5 2
      vertex -19 -19 2
    endloop
  endfacet
  facet normal -0 0 1
    outer loop
      vertex -20.5 20.5 2
      vertex -19 19 2
      vertex 20.5 20.5 2
    endloop
  endfacet
  facet normal -0 0 1
    outer loop
      vertex 19 -19 2
      vertex 20.5 -20.5 2
      vertex 19 19 2
    endloop
  endfacet
  facet normal -0 0 1
    outer loop
      vertex -19 -19 2
      vertex 20.5 -20.5 2
      vertex 19 -19 2
    endloop
  endfacet
  facet normal 0 0 1
    outer loop
      vertex -19 -19 2
      vertex -20.5 -20.5 2
      vertex 20.5 -20.5 2
    endloop
  endfacet
  facet normal 0 0 1
    outer loop
      vertex -20.5 -20.5 2
      vertex -19 -19 2
      vertex -20.5 20.5 2
    endloop
  endfacet
  facet normal 1 -0 0
    outer loop
      vertex 20.5 -20.5 2
      vertex 20.5 20.5 -2
      vertex 20.5 20.5 2
    endloop
  endfacet
  facet normal 1 0 0
    outer loop
      vertex 20.5 20.5 -2
      vertex 20.5 -20.5 2
      vertex 20.5 -20.5 -2
    endloop
  endfacet
  facet normal 0 1 -0
    outer loop
      vertex 20.5 20.5 -2
      vertex -20.5 20.5 2
      vertex 20.5 20.5 2
    endloop
  endfacet
  facet normal 0 1 0
    outer loop
      vertex -20.5 20.5 2
      vertex 20.5 20.5 -2
      vertex -20.5 20.5 -2
    endloop
  endfacet
  facet normal 0 0 1
    outer loop
      vertex 22.5 22.5 -2
      vertex 20.5 20.5 -2
      vertex 22.5 -22.5 -2
    endloop
  endfacet
  facet normal 0 0 1
    outer loop
      vertex 22.5 22.5 -2
      vertex -20.5 20.5 -2
      vertex 20.5 20.5 -2
    endloop
  endfacet
  facet normal 0 0 1
    outer loop
      vertex -20.5 20.5 -2
      vertex -22.5 22.5 -2
      vertex -20.5 -20.5 -2
    endloop
  endfacet
  facet normal -0 0 1
    outer loop
      vertex -22.5 22.5 -2
      vertex -20.5 20.5 -2
      vertex 22.5 22.5 -2
    endloop
  endfacet
  facet normal -0 0 1
    outer loop
      vertex 20.5 -20.5 -2
      vertex 22.5 -22.5 -2
      vertex 20.5 20.5 -2
    endloop
  endfacet
  facet normal -0 0 1
    outer loop
      vertex -20.5 -20.5 -2
      vertex 22.5 -22.5 -2
      vertex 20.5 -20.5 -2
    endloop
  endfacet
  facet normal 0 0 1
    outer loop
      vertex -20.5 -20.5 -2
      vertex -22.5 -22.5 -2
      vertex 22.5 -22.5 -2
    endloop
  endfacet
  facet normal 0 0 1
    outer loop
      vertex -22.5 -22.5 -2
      vertex -20.5 -20.5 -2
      vertex -22.5 22.5 -2
    endloop
  endfacet
  facet normal 0 -1 0
    outer loop
      vertex -20.5 -20.5 -2
      vertex 20.5 -20.5 2
      vertex -20.5 -20.5 2
    endloop
  endfacet
  facet normal 0 -1 -0
    outer loop
      vertex 20.5 -20.5 2
      vertex -20.5 -20.5 -2
      vertex 20.5 -20.5 -2
    endloop
  endfacet
  facet normal 1 -0 0
    outer loop
      vertex -19 -19 2
      vertex -19 19 -1.99
      vertex -19 19 2
    endloop
  endfacet
  facet normal 1 0 0
    outer loop
      vertex -19 19 -1.99
      vertex -19 -19 2
      vertex -19 -19 -1.99
    endloop
  endfacet
  facet normal -1 0 0
    outer loop
      vertex 19 -19 -1.99
      vertex 19 19 2
      vertex 19 19 -1.99
    endloop
  endfacet
  facet normal -1 -0 0
    outer loop
      vertex 19 19 2
      vertex 19 -19 -1.99
      vertex 19 -19 2
    endloop
  endfacet
  facet normal 0 -1 0
    outer loop
      vertex -19 19 -1.99
      vertex 19 19 2
      vertex -19 19 2
    endloop
  endfacet
  facet normal 0 -1 -0
    outer loop
      vertex 19 19 2
      vertex -19 19 -1.99
      vertex 19 19 -1.99
    endloop
  endfacet
  facet normal -0 0 1
    outer loop
      vertex -4.4 1.8 -1.99
      vertex 4.4 -1.8 -1.99
      vertex 4.4 1.8 -1.99
    endloop
  endfacet
  facet normal 0 0 1
    outer loop
      vertex 4.4 -1.8 -1.99
      vertex -4.4 1.8 -1.99
      vertex -4.4 -1.8 -1.99
    endloop
  endfacet
  facet normal 0 0 1
    outer loop
      vertex 14.8 1.8 -1.99
      vertex 19 19 -1.99
      vertex 14.8 15.8 -1.99
    endloop
  endfacet
  facet normal 0 0 1
    outer loop
      vertex 19 19 -1.99
      vertex 6 15.8 -1.99
      vertex 14.8 15.8 -1.99
    endloop
  endfacet
  facet normal 0 0 1
    outer loop
      vertex 6 15.8 -1.99
      vertex 4.4 15.8 -1.99
      vertex 6 1.8 -1.99
    endloop
  endfacet
  facet normal 0 0 1
    outer loop
      vertex 19 19 -1.99
      vertex 4.4 15.8 -1.99
      vertex 6 15.8 -1.99
    endloop
  endfacet
  facet normal 0 0 1
    outer loop
      vertex 19 19 -1.99
      vertex -4.4 15.8 -1.99
      vertex 4.4 15.8 -1.99
    endloop
  endfacet
  facet normal 0 0 1
    outer loop
      vertex -6 1.8 -1.99
      vertex -4.4 1.8 -1.99
      vertex -4.4 15.8 -1.99
    endloop
  endfacet
  facet normal 0 0 1
    outer loop
      vertex -4.4 1.8 -1.99
      vertex -6 1.8 -1.99
      vertex -4.4 -1.8 -1.99
    endloop
  endfacet
  facet normal 0 0 1
    outer loop
      vertex -6 1.8 -1.99
      vertex -4.4 15.8 -1.99
      vertex -6 15.8 -1.99
    endloop
  endfacet
  facet normal -0 0 1
    outer loop
      vertex -19 19 -1.99
      vertex -4.4 15.8 -1.99
      vertex 19 19 -1.99
    endloop
  endfacet
  facet normal 0 0 1
    outer loop
      vertex -4.4 15.8 -1.99
      vertex -19 19 -1.99
      vertex -6 15.8 -1.99
    endloop
  endfacet
  facet normal 0 0 1
    outer loop
      vertex -14.8 15.8 -1.99
      vertex -19 19 -1.99
      vertex -14.8 1.8 -1.99
    endloop
  endfacet
  facet normal 0 0 1
    outer loop
      vertex -6 15.8 -1.99
      vertex -19 19 -1.99
      vertex -14.8 15.8 -1.99
    endloop
  endfacet
  facet normal 0 0 1
    outer loop
      vertex 19 19 -1.99
      vertex 14.8 1.8 -1.99
      vertex 19 -19 -1.99
    endloop
  endfacet
  facet normal 0 0 1
    outer loop
      vertex 4.4 -1.8 -1.99
      vertex 14.8 1.8 -1.99
      vertex 6 1.8 -1.99
    endloop
  endfacet
  facet normal 0 0 1
    outer loop
      vertex 4.4 1.8 -1.99
      vertex 6 1.8 -1.99
      vertex 4.4 15.8 -1.99
    endloop
  endfacet
  facet normal 0 0 1
    outer loop
      vertex 4.4 -1.8 -1.99
      vertex 6 1.8 -1.99
      vertex 4.4 1.8 -1.99
    endloop
  endfacet
  facet normal 0 0 1
    outer loop
      vertex 4.4 -15.8 -1.99
      vertex 14.8 1.8 -1.99
      vertex 4.4 -1.8 -1.99
    endloop
  endfacet
  facet normal 0 0 1
    outer loop
      vertex 14.8 1.8 -1.99
      vertex 4.4 -15.8 -1.99
      vertex 19 -19 -1.99
    endloop
  endfacet
  facet normal -0 0 1
    outer loop
      vertex -4.4 -15.8 -1.99
      vertex 19 -19 -1.99
      vertex 4.4 -15.8 -1.99
    endloop
  endfacet
  facet normal -0 0 1
    outer loop
      vertex -14.8 1.8 -1.99
      vertex -4.4 -1.8 -1.99
      vertex -6 1.8 -1.99
    endloop
  endfacet
  facet normal 0 0 1
    outer loop
      vertex -4.4 -1.8 -1.99
      vertex -14.8 1.8 -1.99
      vertex -4.4 -15.8 -1.99
    endloop
  endfacet
  facet normal 0 0 1
    outer loop
      vertex -4.4 -15.8 -1.99
      vertex -19 -19 -1.99
      vertex 19 -19 -1.99
    endloop
  endfacet
  facet normal 0 0 1
    outer loop
      vertex -14.8 1.8 -1.99
      vertex -19 -19 -1.99
      vertex -4.4 -15.8 -1.99
    endloop
  endfacet
  facet normal 0 0 1
    outer loop
      vertex -19 -19 -1.99
      vertex -14.8 1.8 -1.99
      vertex -19 19 -1.99
    endloop
  endfacet
  facet normal 0 1 -0
    outer loop
      vertex 19 -19 -1.99
      vertex -19 -19 2
      vertex 19 -19 2
    endloop
  endfacet
  facet normal 0 1 0
    outer loop
      vertex -19 -19 2
      vertex 19 -19 -1.99
      vertex -19 -19 -1.99
    endloop
  endfacet
  facet normal -1 0 0
    outer loop
      vertex -22.5 -22.5 -4
      vertex -22.5 22.5 -2
      vertex -22.5 22.5 -4
    endloop
  endfacet
  facet normal -1 -0 0
    outer loop
      vertex -22.5 22.5 -2
      vertex -22.5 -22.5 -4
      vertex -22.5 -22.5 -2
    endloop
  endfacet
  facet normal 1 -0 0
    outer loop
      vertex 22.5 -22.5 -2
      vertex 22.5 22.5 -4
      vertex 22.5 22.5 -2
    endloop
  endfacet
  facet normal 1 0 0
    outer loop
      vertex 22.5 22.5 -4
      vertex 22.5 -22.5 -2
      vertex 22.5 -22.5 -4
    endloop
  endfacet
  facet normal 0 1 -0
    outer loop
      vertex 22.5 22.5 -4
      vertex -22.5 22.5 -2
      vertex 22.5 22.5 -2
    endloop
  endfacet
  facet normal 0 1 0
    outer loop
      vertex -22.5 22.5 -2
      vertex 22.5 22.5 -4
      vertex -22.5 22.5 -4
    endloop
  endfacet
  facet normal 0 0 -1
    outer loop
      vertex -4.4 -1.8 -4
      vertex 4.4 1.8 -4
      vertex 4.4 -1.8 -4
    endloop
  endfacet
  facet normal -0 0 -1
    outer loop
      vertex 4.4 1.8 -4
      vertex -4.4 -1.8 -4
      vertex -4.4 1.8 -4
    endloop
  endfacet
  facet normal 0 0 -1
    outer loop
      vertex 22.5 -22.5 -4
      vertex 14.8 1.8 -4
      vertex 22.5 22.5 -4
    endloop
  endfacet
  facet normal 0 0 -1
    outer loop
      vertex 4.4 -15.8 -4
      vertex 14.8 1.8 -4
      vertex 22.5 -22.5 -4
    endloop
  endfacet
  facet normal -0 0 -1
    outer loop
      vertex 14.8 1.8 -4
      vertex 4.4 -1.8 -4
      vertex 6 1.8 -4
    endloop
  endfacet
  facet normal 0 0 -1
    outer loop
      vertex 14.8 1.8 -4
      vertex 4.4 -15.8 -4
      vertex 4.4 -1.8 -4
    endloop
  endfacet
  facet normal 0 0 -1
    outer loop
      vertex 22.5 -22.5 -4
      vertex -4.4 -15.8 -4
      vertex 4.4 -15.8 -4
    endloop
  endfacet
  facet normal 0 0 -1
    outer loop
      vertex -14.8 1.8 -4
      vertex -4.4 -1.8 -4
      vertex -4.4 -15.8 -4
    endloop
  endfacet
  facet normal 0 0 -1
    outer loop
      vertex -4.4 -1.8 -4
      vertex -6 1.8 -4
      vertex -4.4 1.8 -4
    endloop
  endfacet
  facet normal 0 0 -1
    outer loop
      vertex -4.4 1.8 -4
      vertex -6 1.8 -4
      vertex -4.4 15.8 -4
    endloop
  endfacet
  facet normal 0 0 -1
    outer loop
      vertex -4.4 -1.8 -4
      vertex -14.8 1.8 -4
      vertex -6 1.8 -4
    endloop
  endfacet
  facet normal 0 0 -1
    outer loop
      vertex -22.5 22.5 -4
      vertex -14.8 1.8 -4
      vertex -22.5 -22.5 -4
    endloop
  endfacet
  facet normal -0 0 -1
    outer loop
      vertex -4.4 -15.8 -4
      vertex -22.5 -22.5 -4
      vertex -14.8 1.8 -4
    endloop
  endfacet
  facet normal 0 0 -1
    outer loop
      vertex -22.5 -22.5 -4
      vertex -4.4 -15.8 -4
      vertex 22.5 -22.5 -4
    endloop
  endfacet
  facet normal 0 0 -1
    outer loop
      vertex 14.8 15.8 -4
      vertex 22.5 22.5 -4
      vertex 14.8 1.8 -4
    endloop
  endfacet
  facet normal 0 0 -1
    outer loop
      vertex 6 15.8 -4
      vertex 22.5 22.5 -4
      vertex 14.8 15.8 -4
    endloop
  endfacet
  facet normal 0 0 -1
    outer loop
      vertex 4.4 1.8 -4
      vertex 6 1.8 -4
      vertex 4.4 -1.8 -4
    endloop
  endfacet
  facet normal 0 0 -1
    outer loop
      vertex 6 1.8 -4
      vertex 4.4 1.8 -4
      vertex 6 15.8 -4
    endloop
  endfacet
  facet normal 0 0 -1
    outer loop
      vertex 4.4 15.8 -4
      vertex 6 15.8 -4
      vertex 4.4 1.8 -4
    endloop
  endfacet
  facet normal 0 0 -1
    outer loop
      vertex 4.4 15.8 -4
      vertex 22.5 22.5 -4
      vertex 6 15.8 -4
    endloop
  endfacet
  facet normal 0 0 -1
    outer loop
      vertex -4.4 15.8 -4
      vertex 22.5 22.5 -4
      vertex 4.4 15.8 -4
    endloop
  endfacet
  facet normal 0 0 -1
    outer loop
      vertex -6 15.8 -4
      vertex -4.4 15.8 -4
      vertex -6 1.8 -4
    endloop
  endfacet
  facet normal 0 0 -1
    outer loop
      vertex -22.5 22.5 -4
      vertex -4.4 15.8 -4
      vertex -6 15.8 -4
    endloop
  endfacet
  facet normal 0 0 -1
    outer loop
      vertex -22.5 22.5 -4
      vertex -6 15.8 -4
      vertex -14.8 15.8 -4
    endloop
  endfacet
  facet normal 0 0 -1
    outer loop
      vertex -4.4 15.8 -4
      vertex -22.5 22.5 -4
      vertex 22.5 22.5 -4
    endloop
  endfacet
  facet normal 0 0 -1
    outer loop
      vertex -14.8 1.8 -4
      vertex -22.5 22.5 -4
      vertex -14.8 15.8 -4
    endloop
  endfacet
  facet normal 0 -1 0
    outer loop
      vertex -22.5 -22.5 -4
      vertex 22.5 -22.5 -2
      vertex -22.5 -22.5 -2
    endloop
  endfacet
  facet normal 0 -1 -0
    outer loop
      vertex 22.5 -22.5 -2
      vertex -22.5 -22.5 -4
      vertex 22.5 -22.5 -4
    endloop
  endfacet
  facet normal 1 -0 0
    outer loop
      vertex -4.4 1.8 -1.99
      vertex -4.4 15.8 -4
      vertex -4.4 15.8 -1.99
    endloop
  endfacet
  facet normal 1 0 0
    outer loop
      vertex -4.4 15.8 -4
      vertex -4.4 1.8 -1.99
      vertex -4.4 1.8 -4
    endloop
  endfacet
  facet normal -1 0 0
    outer loop
      vertex 4.4 1.8 -4
      vertex 4.4 15.8 -1.99
      vertex 4.4 15.8 -4
    endloop
  endfacet
  facet normal -1 -0 0
    outer loop
      vertex 4.4 15.8 -1.99
      vertex 4.4 1.8 -4
      vertex 4.4 1.8 -1.99
    endloop
  endfacet
  facet normal 0 1 -0
    outer loop
      vertex 4.4 1.8 -4
      vertex -4.4 1.8 -1.99
      vertex 4.4 1.8 -1.99
    endloop
  endfacet
  facet normal 0 1 0
    outer loop
      vertex -4.4 1.8 -1.99
      vertex 4.4 1.8 -4
      vertex -4.4 1.8 -4
    endloop
  endfacet
  facet normal 0 -1 0
    outer loop
      vertex -4.4 15.8 -4
      vertex 4.4 15.8 -1.99
      vertex -4.4 15.8 -1.99
    endloop
  endfacet
  facet normal 0 -1 -0
    outer loop
      vertex 4.4 15.8 -1.99
      vertex -4.4 15.8 -4
      vertex 4.4 15.8 -4
    endloop
  endfacet
  facet normal 1 -0 0
    outer loop
      vertex 6 1.8 -1.99
      vertex 6 15.8 -4
      vertex 6 15.8 -1.99
    endloop
  endfacet
  facet normal 1 0 0
    outer loop
      vertex 6 15.8 -4
      vertex 6 1.8 -1.99
      vertex 6 1.8 -4
    endloop
  endfacet
  facet normal -1 0 0
    outer loop
      vertex 14.8 1.8 -4
      vertex 14.8 15.8 -1.99
      vertex 14.8 15.8 -4
    endloop
  endfacet
  facet normal -1 -0 0
    outer loop
      vertex 14.8 15.8 -1.99
      vertex 14.8 1.8 -4
      vertex 14.8 1.8 -1.99
    endloop
  endfacet
  facet normal 0 1 -0
    outer loop
      vertex 14.8 1.8 -4
      vertex 6 1.8 -1.99
      vertex 14.8 1.8 -1.99
    endloop
  endfacet
  facet normal 0 1 0
    outer loop
      vertex 6 1.8 -1.99
      vertex 14.8 1.8 -4
      vertex 6 1.8 -4
    endloop
  endfacet
  facet normal 0 -1 0
    outer loop
      vertex 6 15.8 -4
      vertex 14.8 15.8 -1.99
      vertex 6 15.8 -1.99
    endloop
  endfacet
  facet normal 0 -1 -0
    outer loop
      vertex 14.8 15.8 -1.99
      vertex 6 15.8 -4
      vertex 14.8 15.8 -4
    endloop
  endfacet
  facet normal 1 -0 0
    outer loop
      vertex -14.8 1.8 -1.99
      vertex -14.8 15.8 -4
      vertex -14.8 15.8 -1.99
    endloop
  endfacet
  facet normal 1 0 0
    outer loop
      vertex -14.8 15.8 -4
      vertex -14.8 1.8 -1.99
      vertex -14.8 1.8 -4
    endloop
  endfacet
  facet normal -1 0 0
    outer loop
      vertex -6 1.8 -4
      vertex -6 15.8 -1.99
      vertex -6 15.8 -4
    endloop
  endfacet
  facet normal -1 -0 0
    outer loop
      vertex -6 15.8 -1.99
      vertex -6 1.8 -4
      vertex -6 1.8 -1.99
    endloop
  endfacet
  facet normal 0 1 -0
    outer loop
      vertex -6 1.8 -4
      vertex -14.8 1.8 -1.99
      vertex -6 1.8 -1.99
    endloop
  endfacet
  facet normal 0 1 0
    outer loop
      vertex -14.8 1.8 -1.99
      vertex -6 1.8 -4
      vertex -14.8 1.8 -4
    endloop
  endfacet
  facet normal 0 -1 0
    outer loop
      vertex -14.8 15.8 -4
      vertex -6 15.8 -1.99
      vertex -14.8 15.8 -1.99
    endloop
  endfacet
  facet normal 0 -1 -0
    outer loop
      vertex -6 15.8 -1.99
      vertex -14.8 15.8 -4
      vertex -6 15.8 -4
    endloop
  endfacet
  facet normal 1 -0 0
    outer loop
      vertex -4.4 -15.8 -1.99
      vertex -4.4 -1.8 -4
      vertex -4.4 -1.8 -1.99
    endloop
  endfacet
  facet normal 1 0 0
    outer loop
      vertex -4.4 -1.8 -4
      vertex -4.4 -15.8 -1.99
      vertex -4.4 -15.8 -4
    endloop
  endfacet
  facet normal -1 0 0
    outer loop
      vertex 4.4 -15.8 -4
      vertex 4.4 -1.8 -1.99
      vertex 4.4 -1.8 -4
    endloop
  endfacet
  facet normal -1 -0 0
    outer loop
      vertex 4.4 -1.8 -1.99
      vertex 4.4 -15.8 -4
      vertex 4.4 -15.8 -1.99
    endloop
  endfacet
  facet normal 0 -1 0
    outer loop
      vertex -4.4 -1.8 -4
      vertex 4.4 -1.8 -1.99
      vertex -4.4 -1.8 -1.99
    endloop
  endfacet
  facet normal 0 -1 -0
    outer loop
      vertex 4.4 -1.8 -1.99
      vertex -4.4 -1.8 -4
      vertex 4.4 -1.8 -4
    endloop
  endfacet
  facet normal 0 1 -0
    outer loop
      vertex 4.4 -15.8 -4
      vertex -4.4 -15.8 -1.99
      vertex 4.4 -15.8 -1.99
    endloop
  endfacet
  facet normal 0 1 0
    outer loop
      vertex -4.4 -15.8 -1.99
      vertex 4.4 -15.8 -4
      vertex -4.4 -15.8 -4
    endloop
  endfacet
endsolid OpenSCAD_Model
