solid OpenSCAD_Model
  facet normal 1 -0 0
    outer loop
      vertex -4.4 -7 -78
      vertex -4.4 7 -81
      vertex -4.4 7 -78
    endloop
  endfacet
  facet normal 1 0 0
    outer loop
      vertex -4.4 7 -81
      vertex -4.4 -7 -78
      vertex -4.4 -7 -81
    endloop
  endfacet
  facet normal -1 0 0
    outer loop
      vertex 4.4 -7 -81
      vertex 4.4 7 -78
      vertex 4.4 7 -81
    endloop
  endfacet
  facet normal -1 -0 0
    outer loop
      vertex 4.4 7 -78
      vertex 4.4 -7 -81
      vertex 4.4 -7 -78
    endloop
  endfacet
  facet normal 0 -1 0
    outer loop
      vertex -4.4 7 -81
      vertex 4.4 7 -78
      vertex -4.4 7 -78
    endloop
  endfacet
  facet normal 0 -1 -0
    outer loop
      vertex 4.4 7 -78
      vertex -4.4 7 -81
      vertex 4.4 7 -81
    endloop
  endfacet
  facet normal 0 1 -0
    outer loop
      vertex 4.4 -7 -81
      vertex -4.4 -7 -78
      vertex 4.4 -7 -78
    endloop
  endfacet
  facet normal 0 1 0
    outer loop
      vertex -4.4 -7 -78
      vertex 4.4 -7 -81
      vertex -4.4 -7 -81
    endloop
  endfacet
  facet normal 1 -0 0
    outer loop
      vertex 6 -7 -78
      vertex 6 7 -81
      vertex 6 7 -78
    endloop
  endfacet
  facet normal 1 0 0
    outer loop
      vertex 6 7 -81
      vertex 6 -7 -78
      vertex 6 -7 -81
    endloop
  endfacet
  facet normal -1 0 0
    outer loop
      vertex 14.8 -7 -81
      vertex 14.8 7 -78
      vertex 14.8 7 -81
    endloop
  endfacet
  facet normal -1 -0 0
    outer loop
      vertex 14.8 7 -78
      vertex 14.8 -7 -81
      vertex 14.8 -7 -78
    endloop
  endfacet
  facet normal 0 -1 0
    outer loop
      vertex 6 7 -81
      vertex 14.8 7 -78
      vertex 6 7 -78
    endloop
  endfacet
  facet normal 0 -1 -0
    outer loop
      vertex 14.8 7 -78
      vertex 6 7 -81
      vertex 14.8 7 -81
    endloop
  endfacet
  facet normal 0 1 -0
    outer loop
      vertex 14.8 -7 -81
      vertex 6 -7 -78
      vertex 14.8 -7 -78
    endloop
  endfacet
  facet normal 0 1 0
    outer loop
      vertex 6 -7 -78
      vertex 14.8 -7 -81
      vertex 6 -7 -81
    endloop
  endfacet
  facet normal 1 -0 0
    outer loop
      vertex -14.8 -7 -78
      vertex -14.8 7 -81
      vertex -14.8 7 -78
    endloop
  endfacet
  facet normal 1 0 0
    outer loop
      vertex -14.8 7 -81
      vertex -14.8 -7 -78
      vertex -14.8 -7 -81
    endloop
  endfacet
  facet normal -1 0 0
    outer loop
      vertex -6 -7 -81
      vertex -6 7 -78
      vertex -6 7 -81
    endloop
  endfacet
  facet normal -1 -0 0
    outer loop
      vertex -6 7 -78
      vertex -6 -7 -81
      vertex -6 -7 -78
    endloop
  endfacet
  facet normal 0 1 -0
    outer loop
      vertex -6 -7 -81
      vertex -14.8 -7 -78
      vertex -6 -7 -78
    endloop
  endfacet
  facet normal 0 1 0
    outer loop
      vertex -14.8 -7 -78
      vertex -6 -7 -81
      vertex -14.8 -7 -81
    endloop
  endfacet
  facet normal 0 -1 0
    outer loop
      vertex -14.8 7 -81
      vertex -6 7 -78
      vertex -14.8 7 -78
    endloop
  endfacet
  facet normal 0 -1 -0
    outer loop
      vertex -6 7 -78
      vertex -14.8 7 -81
      vertex -6 7 -81
    endloop
  endfacet
  facet normal 0.994522 0.104529 0
    outer loop
      vertex 18 14 77.0001
      vertex 17.9126 14.8316 -81
      vertex 17.9126 14.8316 77.0001
    endloop
  endfacet
  facet normal 0.994522 0.104529 0
    outer loop
      vertex 17.9126 14.8316 -81
      vertex 18 14 77.0001
      vertex 18 14 -81
    endloop
  endfacet
  facet normal -0.951057 -0.309016 0
    outer loop
      vertex -17.6542 -15.6269 -81
      vertex -17.9126 -14.8316 77.0001
      vertex -17.9126 -14.8316 -81
    endloop
  endfacet
  facet normal -0.951057 -0.309016 0
    outer loop
      vertex -17.9126 -14.8316 77.0001
      vertex -17.6542 -15.6269 -81
      vertex -17.6542 -15.6269 77.0001
    endloop
  endfacet
  facet normal 0.866026 0.5 0
    outer loop
      vertex 17.6542 15.6269 77.0001
      vertex 17.2361 16.3511 -81
      vertex 17.2361 16.3511 77.0001
    endloop
  endfacet
  facet normal 0.866026 0.5 0
    outer loop
      vertex 17.2361 16.3511 -81
      vertex 17.6542 15.6269 77.0001
      vertex 17.6542 15.6269 -81
    endloop
  endfacet
  facet normal 1 -0 0
    outer loop
      vertex 18 -14 77.0001
      vertex 18 14 -81
      vertex 18 14 77.0001
    endloop
  endfacet
  facet normal 1 0 0
    outer loop
      vertex 18 14 -81
      vertex 18 -14 77.0001
      vertex 18 -14 -81
    endloop
  endfacet
  facet normal 0.951057 0.309016 0
    outer loop
      vertex 17.9126 14.8316 77.0001
      vertex 17.6542 15.6269 -81
      vertex 17.6542 15.6269 77.0001
    endloop
  endfacet
  facet normal 0.951057 0.309016 0
    outer loop
      vertex 17.6542 15.6269 -81
      vertex 17.9126 14.8316 77.0001
      vertex 17.9126 14.8316 -81
    endloop
  endfacet
  facet normal 0.207913 0.978147 -0
    outer loop
      vertex 15.2361 17.8042 -81
      vertex 14.4181 17.9781 77.0001
      vertex 15.2361 17.8042 77.0001
    endloop
  endfacet
  facet normal 0.207913 0.978147 0
    outer loop
      vertex 14.4181 17.9781 77.0001
      vertex 15.2361 17.8042 -81
      vertex 14.4181 17.9781 -81
    endloop
  endfacet
  facet normal 0.743144 -0.669131 0
    outer loop
      vertex 16.6765 -16.9726 77.0001
      vertex 17.2361 -16.3511 -81
      vertex 17.2361 -16.3511 77.0001
    endloop
  endfacet
  facet normal 0.743144 -0.669131 0
    outer loop
      vertex 17.2361 -16.3511 -81
      vertex 16.6765 -16.9726 77.0001
      vertex 16.6765 -16.9726 -81
    endloop
  endfacet
  facet normal -0.994522 -0.104529 0
    outer loop
      vertex -17.9126 -14.8316 -81
      vertex -18 -14 77.0001
      vertex -18 -14 -81
    endloop
  endfacet
  facet normal -0.994522 -0.104529 0
    outer loop
      vertex -18 -14 77.0001
      vertex -17.9126 -14.8316 -81
      vertex -17.9126 -14.8316 77.0001
    endloop
  endfacet
  facet normal 0 0 1
    outer loop
      vertex 18 14 77.0001
      vertex 15.9126 12.8316 77.0001
      vertex 16 12 77.0001
    endloop
  endfacet
  facet normal 0 0 1
    outer loop
      vertex 16.6765 16.9726 77.0001
      vertex 15.6542 13.6269 77.0001
      vertex 15.9126 12.8316 77.0001
    endloop
  endfacet
  facet normal 0 0 1
    outer loop
      vertex 14 15.4641 77.0001
      vertex 16 17.4641 77.0001
      vertex 15.2361 17.8042 77.0001
    endloop
  endfacet
  facet normal 0 0 1
    outer loop
      vertex 16.6765 16.9726 77.0001
      vertex 15.2361 14.3511 77.0001
      vertex 15.6542 13.6269 77.0001
    endloop
  endfacet
  facet normal 0 0 1
    outer loop
      vertex 16.6765 16.9726 77.0001
      vertex 14.6765 14.9726 77.0001
      vertex 15.2361 14.3511 77.0001
    endloop
  endfacet
  facet normal 0 0 1
    outer loop
      vertex 14 15.4641 77.0001
      vertex 15.2361 17.8042 77.0001
      vertex 14.4181 17.9781 77.0001
    endloop
  endfacet
  facet normal 0 0 1
    outer loop
      vertex 16 17.4641 77.0001
      vertex 14 15.4641 77.0001
      vertex 14.6765 14.9726 77.0001
    endloop
  endfacet
  facet normal 0 0 1
    outer loop
      vertex 14.4181 17.9781 77.0001
      vertex 13.2361 15.8042 77.0001
      vertex 14 15.4641 77.0001
    endloop
  endfacet
  facet normal 0 0 1
    outer loop
      vertex 14.4181 17.9781 77.0001
      vertex 12.4181 15.9781 77.0001
      vertex 13.2361 15.8042 77.0001
    endloop
  endfacet
  facet normal 0 0 1
    outer loop
      vertex 14.4181 17.9781 77.0001
      vertex -12.4181 15.9781 77.0001
      vertex 12.4181 15.9781 77.0001
    endloop
  endfacet
  facet normal -0 0 1
    outer loop
      vertex -14.4181 17.9781 77.0001
      vertex -12.4181 15.9781 77.0001
      vertex 14.4181 17.9781 77.0001
    endloop
  endfacet
  facet normal 0 0 1
    outer loop
      vertex -14.4181 17.9781 77.0001
      vertex -13.2361 15.8042 77.0001
      vertex -12.4181 15.9781 77.0001
    endloop
  endfacet
  facet normal 0 0 1
    outer loop
      vertex -14.4181 17.9781 77.0001
      vertex -14 15.4641 77.0001
      vertex -13.2361 15.8042 77.0001
    endloop
  endfacet
  facet normal -0 0 1
    outer loop
      vertex -15.2361 17.8042 77.0001
      vertex -14 15.4641 77.0001
      vertex -14.4181 17.9781 77.0001
    endloop
  endfacet
  facet normal -0 0 1
    outer loop
      vertex -16 17.4641 77.0001
      vertex -14 15.4641 77.0001
      vertex -15.2361 17.8042 77.0001
    endloop
  endfacet
  facet normal 0 0 1
    outer loop
      vertex -14 15.4641 77.0001
      vertex -16 17.4641 77.0001
      vertex -14.6765 14.9726 77.0001
    endloop
  endfacet
  facet normal -0 0 1
    outer loop
      vertex -16.6765 16.9726 77.0001
      vertex -14.6765 14.9726 77.0001
      vertex -16 17.4641 77.0001
    endloop
  endfacet
  facet normal -0 0 1
    outer loop
      vertex -17.2361 16.3511 77.0001
      vertex -14.6765 14.9726 77.0001
      vertex -16.6765 16.9726 77.0001
    endloop
  endfacet
  facet normal 0 0 1
    outer loop
      vertex -14.6765 14.9726 77.0001
      vertex -17.2361 16.3511 77.0001
      vertex -15.2361 14.3511 77.0001
    endloop
  endfacet
  facet normal -0 0 1
    outer loop
      vertex -17.6542 15.6269 77.0001
      vertex -15.2361 14.3511 77.0001
      vertex -17.2361 16.3511 77.0001
    endloop
  endfacet
  facet normal 0 0 1
    outer loop
      vertex -18 -14 77.0001
      vertex -16 -12 77.0001
      vertex -16 12 77.0001
    endloop
  endfacet
  facet normal -0 0 1
    outer loop
      vertex -17.9126 14.8316 77.0001
      vertex -15.2361 14.3511 77.0001
      vertex -17.6542 15.6269 77.0001
    endloop
  endfacet
  facet normal 0 0 1
    outer loop
      vertex -15.2361 14.3511 77.0001
      vertex -17.9126 14.8316 77.0001
      vertex -15.6542 13.6269 77.0001
    endloop
  endfacet
  facet normal 0 0 1
    outer loop
      vertex -18 -14 77.0001
      vertex -16 12 77.0001
      vertex -18 14 77.0001
    endloop
  endfacet
  facet normal -0 0 1
    outer loop
      vertex -18 14 77.0001
      vertex -15.6542 13.6269 77.0001
      vertex -17.9126 14.8316 77.0001
    endloop
  endfacet
  facet normal 0 -0 1
    outer loop
      vertex -17.9126 -14.8316 77.0001
      vertex -16 -12 77.0001
      vertex -18 -14 77.0001
    endloop
  endfacet
  facet normal 0 0 1
    outer loop
      vertex -15.6542 13.6269 77.0001
      vertex -18 14 77.0001
      vertex -15.9126 12.8316 77.0001
    endloop
  endfacet
  facet normal 0 0 1
    outer loop
      vertex -16 -12 77.0001
      vertex -16.6765 -16.9726 77.0001
      vertex -16 -17.4641 77.0001
    endloop
  endfacet
  facet normal 0 0 1
    outer loop
      vertex -15.9126 12.8316 77.0001
      vertex -18 14 77.0001
      vertex -16 12 77.0001
    endloop
  endfacet
  facet normal 0 0 1
    outer loop
      vertex -16 -12 77.0001
      vertex -17.2361 -16.3511 77.0001
      vertex -16.6765 -16.9726 77.0001
    endloop
  endfacet
  facet normal 0 0 1
    outer loop
      vertex -16 -12 77.0001
      vertex -17.6542 -15.6269 77.0001
      vertex -17.2361 -16.3511 77.0001
    endloop
  endfacet
  facet normal 0 0 1
    outer loop
      vertex -16 -12 77.0001
      vertex -17.9126 -14.8316 77.0001
      vertex -17.6542 -15.6269 77.0001
    endloop
  endfacet
  facet normal 0 0 1
    outer loop
      vertex 15.9126 12.8316 77.0001
      vertex 18 14 77.0001
      vertex 17.9126 14.8316 77.0001
    endloop
  endfacet
  facet normal 0 0 1
    outer loop
      vertex 18 14 77.0001
      vertex 16 12 77.0001
      vertex 18 -14 77.0001
    endloop
  endfacet
  facet normal 0 0 1
    outer loop
      vertex 15.9126 12.8316 77.0001
      vertex 17.9126 14.8316 77.0001
      vertex 17.6542 15.6269 77.0001
    endloop
  endfacet
  facet normal -0 0 1
    outer loop
      vertex 16 -12 77.0001
      vertex 18 -14 77.0001
      vertex 16 12 77.0001
    endloop
  endfacet
  facet normal 0 0 1
    outer loop
      vertex 15.9126 12.8316 77.0001
      vertex 17.6542 15.6269 77.0001
      vertex 17.2361 16.3511 77.0001
    endloop
  endfacet
  facet normal -0 0 1
    outer loop
      vertex 15.9126 -12.8316 77.0001
      vertex 18 -14 77.0001
      vertex 16 -12 77.0001
    endloop
  endfacet
  facet normal 0 0 1
    outer loop
      vertex 15.9126 12.8316 77.0001
      vertex 17.2361 16.3511 77.0001
      vertex 16.6765 16.9726 77.0001
    endloop
  endfacet
  facet normal -0 0 1
    outer loop
      vertex 15.6542 -13.6269 77.0001
      vertex 18 -14 77.0001
      vertex 15.9126 -12.8316 77.0001
    endloop
  endfacet
  facet normal 0 0 1
    outer loop
      vertex 14.6765 14.9726 77.0001
      vertex 16.6765 16.9726 77.0001
      vertex 16 17.4641 77.0001
    endloop
  endfacet
  facet normal 0 0 1
    outer loop
      vertex 18 -14 77.0001
      vertex 15.6542 -13.6269 77.0001
      vertex 17.9126 -14.8316 77.0001
    endloop
  endfacet
  facet normal -0 0 1
    outer loop
      vertex 15.2361 -14.3511 77.0001
      vertex 17.9126 -14.8316 77.0001
      vertex 15.6542 -13.6269 77.0001
    endloop
  endfacet
  facet normal 0 0 1
    outer loop
      vertex 17.9126 -14.8316 77.0001
      vertex 15.2361 -14.3511 77.0001
      vertex 17.6542 -15.6269 77.0001
    endloop
  endfacet
  facet normal 0 0 1
    outer loop
      vertex 17.6542 -15.6269 77.0001
      vertex 15.2361 -14.3511 77.0001
      vertex 17.2361 -16.3511 77.0001
    endloop
  endfacet
  facet normal -0 0 1
    outer loop
      vertex 14.6765 -14.9726 77.0001
      vertex 17.2361 -16.3511 77.0001
      vertex 15.2361 -14.3511 77.0001
    endloop
  endfacet
  facet normal 0 0 1
    outer loop
      vertex 17.2361 -16.3511 77.0001
      vertex 14.6765 -14.9726 77.0001
      vertex 16.6765 -16.9726 77.0001
    endloop
  endfacet
  facet normal 0 0 1
    outer loop
      vertex 16.6765 -16.9726 77.0001
      vertex 14.6765 -14.9726 77.0001
      vertex 16 -17.4641 77.0001
    endloop
  endfacet
  facet normal -0 0 1
    outer loop
      vertex 14 -15.4641 77.0001
      vertex 16 -17.4641 77.0001
      vertex 14.6765 -14.9726 77.0001
    endloop
  endfacet
  facet normal 0 0 1
    outer loop
      vertex 16 -17.4641 77.0001
      vertex 14 -15.4641 77.0001
      vertex 15.2361 -17.8042 77.0001
    endloop
  endfacet
  facet normal 0 0 1
    outer loop
      vertex 15.2361 -17.8042 77.0001
      vertex 14 -15.4641 77.0001
      vertex 14.4181 -17.9781 77.0001
    endloop
  endfacet
  facet normal -0 0 1
    outer loop
      vertex 13.2361 -15.8042 77.0001
      vertex 14.4181 -17.9781 77.0001
      vertex 14 -15.4641 77.0001
    endloop
  endfacet
  facet normal -0 0 1
    outer loop
      vertex 12.4181 -15.9781 77.0001
      vertex 14.4181 -17.9781 77.0001
      vertex 13.2361 -15.8042 77.0001
    endloop
  endfacet
  facet normal -0 0 1
    outer loop
      vertex -12.4181 -15.9781 77.0001
      vertex 14.4181 -17.9781 77.0001
      vertex 12.4181 -15.9781 77.0001
    endloop
  endfacet
  facet normal 0 0 1
    outer loop
      vertex -12.4181 -15.9781 77.0001
      vertex -14.4181 -17.9781 77.0001
      vertex 14.4181 -17.9781 77.0001
    endloop
  endfacet
  facet normal 0 0 1
    outer loop
      vertex -13.2361 -15.8042 77.0001
      vertex -14.4181 -17.9781 77.0001
      vertex -12.4181 -15.9781 77.0001
    endloop
  endfacet
  facet normal 0 0 1
    outer loop
      vertex -14 -15.4641 77.0001
      vertex -14.4181 -17.9781 77.0001
      vertex -13.2361 -15.8042 77.0001
    endloop
  endfacet
  facet normal 0 0 1
    outer loop
      vertex -16 -17.4641 77.0001
      vertex -14 -15.4641 77.0001
      vertex -14.6765 -14.9726 77.0001
    endloop
  endfacet
  facet normal 0 0 1
    outer loop
      vertex -16 -17.4641 77.0001
      vertex -14.6765 -14.9726 77.0001
      vertex -15.2361 -14.3511 77.0001
    endloop
  endfacet
  facet normal 0 0 1
    outer loop
      vertex -14 -15.4641 77.0001
      vertex -15.2361 -17.8042 77.0001
      vertex -14.4181 -17.9781 77.0001
    endloop
  endfacet
  facet normal 0 0 1
    outer loop
      vertex -16 -17.4641 77.0001
      vertex -15.2361 -14.3511 77.0001
      vertex -15.6542 -13.6269 77.0001
    endloop
  endfacet
  facet normal 0 0 1
    outer loop
      vertex -16 -17.4641 77.0001
      vertex -15.6542 -13.6269 77.0001
      vertex -15.9126 -12.8316 77.0001
    endloop
  endfacet
  facet normal 0 0 1
    outer loop
      vertex -14 -15.4641 77.0001
      vertex -16 -17.4641 77.0001
      vertex -15.2361 -17.8042 77.0001
    endloop
  endfacet
  facet normal 0 0 1
    outer loop
      vertex -16 -17.4641 77.0001
      vertex -15.9126 -12.8316 77.0001
      vertex -16 -12 77.0001
    endloop
  endfacet
  facet normal 0.743144 0.669131 0
    outer loop
      vertex 17.2361 16.3511 77.0001
      vertex 16.6765 16.9726 -81
      vertex 16.6765 16.9726 77.0001
    endloop
  endfacet
  facet normal 0.743144 0.669131 0
    outer loop
      vertex 16.6765 16.9726 -81
      vertex 17.2361 16.3511 77.0001
      vertex 17.2361 16.3511 -81
    endloop
  endfacet
  facet normal 0 -1 0
    outer loop
      vertex -14.4181 -17.9781 -81
      vertex 14.4181 -17.9781 77.0001
      vertex -14.4181 -17.9781 77.0001
    endloop
  endfacet
  facet normal 0 -1 -0
    outer loop
      vertex 14.4181 -17.9781 77.0001
      vertex -14.4181 -17.9781 -81
      vertex 14.4181 -17.9781 -81
    endloop
  endfacet
  facet normal 0.207913 -0.978147 0
    outer loop
      vertex 14.4181 -17.9781 -81
      vertex 15.2361 -17.8042 77.0001
      vertex 14.4181 -17.9781 77.0001
    endloop
  endfacet
  facet normal 0.207913 -0.978147 0
    outer loop
      vertex 15.2361 -17.8042 77.0001
      vertex 14.4181 -17.9781 -81
      vertex 15.2361 -17.8042 -81
    endloop
  endfacet
  facet normal 0 1 -0
    outer loop
      vertex 14.4181 17.9781 -81
      vertex -14.4181 17.9781 77.0001
      vertex 14.4181 17.9781 77.0001
    endloop
  endfacet
  facet normal 0 1 0
    outer loop
      vertex -14.4181 17.9781 77.0001
      vertex 14.4181 17.9781 -81
      vertex -14.4181 17.9781 -81
    endloop
  endfacet
  facet normal 0.587784 0.809018 -0
    outer loop
      vertex 16.6765 16.9726 -81
      vertex 16 17.4641 77.0001
      vertex 16.6765 16.9726 77.0001
    endloop
  endfacet
  facet normal 0.587784 0.809018 0
    outer loop
      vertex 16 17.4641 77.0001
      vertex 16.6765 16.9726 -81
      vertex 16 17.4641 -81
    endloop
  endfacet
  facet normal 0.406738 0.913545 -0
    outer loop
      vertex 16 17.4641 -81
      vertex 15.2361 17.8042 77.0001
      vertex 16 17.4641 77.0001
    endloop
  endfacet
  facet normal 0.406738 0.913545 0
    outer loop
      vertex 15.2361 17.8042 77.0001
      vertex 16 17.4641 -81
      vertex 15.2361 17.8042 -81
    endloop
  endfacet
  facet normal 0.951057 -0.309016 0
    outer loop
      vertex 17.6542 -15.6269 77.0001
      vertex 17.9126 -14.8316 -81
      vertex 17.9126 -14.8316 77.0001
    endloop
  endfacet
  facet normal 0.951057 -0.309016 0
    outer loop
      vertex 17.9126 -14.8316 -81
      vertex 17.6542 -15.6269 77.0001
      vertex 17.6542 -15.6269 -81
    endloop
  endfacet
  facet normal 0.994522 -0.104529 0
    outer loop
      vertex 17.9126 -14.8316 77.0001
      vertex 18 -14 -81
      vertex 18 -14 77.0001
    endloop
  endfacet
  facet normal 0.994522 -0.104529 0
    outer loop
      vertex 18 -14 -81
      vertex 17.9126 -14.8316 77.0001
      vertex 17.9126 -14.8316 -81
    endloop
  endfacet
  facet normal -0.207913 -0.978147 0
    outer loop
      vertex -15.2361 -17.8042 -81
      vertex -14.4181 -17.9781 77.0001
      vertex -15.2361 -17.8042 77.0001
    endloop
  endfacet
  facet normal -0.207913 -0.978147 -0
    outer loop
      vertex -14.4181 -17.9781 77.0001
      vertex -15.2361 -17.8042 -81
      vertex -14.4181 -17.9781 -81
    endloop
  endfacet
  facet normal 0.406738 -0.913545 0
    outer loop
      vertex 15.2361 -17.8042 -81
      vertex 16 -17.4641 77.0001
      vertex 15.2361 -17.8042 77.0001
    endloop
  endfacet
  facet normal 0.406738 -0.913545 0
    outer loop
      vertex 16 -17.4641 77.0001
      vertex 15.2361 -17.8042 -81
      vertex 16 -17.4641 -81
    endloop
  endfacet
  facet normal -1 0 0
    outer loop
      vertex -18 -14 -81
      vertex -18 14 77.0001
      vertex -18 14 -81
    endloop
  endfacet
  facet normal -1 -0 0
    outer loop
      vertex -18 14 77.0001
      vertex -18 -14 -81
      vertex -18 -14 77.0001
    endloop
  endfacet
  facet normal 0 0 -1
    outer loop
      vertex 14.4181 -17.9781 -81
      vertex 18 -14 -81
      vertex 17.9126 -14.8316 -81
    endloop
  endfacet
  facet normal 0 0 -1
    outer loop
      vertex 18 -14 -81
      vertex 14.8 -7 -81
      vertex 18 14 -81
    endloop
  endfacet
  facet normal 0 0 -1
    outer loop
      vertex 14.4181 -17.9781 -81
      vertex 17.9126 -14.8316 -81
      vertex 17.6542 -15.6269 -81
    endloop
  endfacet
  facet normal 0 0 -1
    outer loop
      vertex 14.8 7 -81
      vertex 18 14 -81
      vertex 14.8 -7 -81
    endloop
  endfacet
  facet normal 0 0 -1
    outer loop
      vertex 14.4181 -17.9781 -81
      vertex 17.6542 -15.6269 -81
      vertex 17.2361 -16.3511 -81
    endloop
  endfacet
  facet normal 0 0 -1
    outer loop
      vertex 14.4181 17.9781 -81
      vertex 18 14 -81
      vertex 14.8 7 -81
    endloop
  endfacet
  facet normal 0 0 -1
    outer loop
      vertex 14.4181 -17.9781 -81
      vertex 17.2361 -16.3511 -81
      vertex 16.6765 -16.9726 -81
    endloop
  endfacet
  facet normal 0 0 -1
    outer loop
      vertex 18 14 -81
      vertex 14.4181 17.9781 -81
      vertex 17.9126 14.8316 -81
    endloop
  endfacet
  facet normal 0 0 -1
    outer loop
      vertex 14.4181 -17.9781 -81
      vertex 16.6765 -16.9726 -81
      vertex 16 -17.4641 -81
    endloop
  endfacet
  facet normal 0 0 -1
    outer loop
      vertex 17.9126 14.8316 -81
      vertex 14.4181 17.9781 -81
      vertex 17.6542 15.6269 -81
    endloop
  endfacet
  facet normal 0 0 -1
    outer loop
      vertex 14.4181 -17.9781 -81
      vertex 16 -17.4641 -81
      vertex 15.2361 -17.8042 -81
    endloop
  endfacet
  facet normal 0 0 -1
    outer loop
      vertex 17.6542 15.6269 -81
      vertex 14.4181 17.9781 -81
      vertex 17.2361 16.3511 -81
    endloop
  endfacet
  facet normal 0 0 -1
    outer loop
      vertex 17.2361 16.3511 -81
      vertex 14.4181 17.9781 -81
      vertex 16.6765 16.9726 -81
    endloop
  endfacet
  facet normal -0 0 -1
    outer loop
      vertex 18 -14 -81
      vertex 14.4181 -17.9781 -81
      vertex 14.8 -7 -81
    endloop
  endfacet
  facet normal 0 0 -1
    outer loop
      vertex 14.4181 -17.9781 -81
      vertex 6 -7 -81
      vertex 14.8 -7 -81
    endloop
  endfacet
  facet normal 0 0 -1
    outer loop
      vertex 6 -7 -81
      vertex 4.4 -7 -81
      vertex 6 7 -81
    endloop
  endfacet
  facet normal 0 0 -1
    outer loop
      vertex 14.4181 -17.9781 -81
      vertex 4.4 -7 -81
      vertex 6 -7 -81
    endloop
  endfacet
  facet normal 0 0 -1
    outer loop
      vertex 14.4181 -17.9781 -81
      vertex -4.4 -7 -81
      vertex 4.4 -7 -81
    endloop
  endfacet
  facet normal 0 0 -1
    outer loop
      vertex -4.4 -7 -81
      vertex -6 -7 -81
      vertex -4.4 7 -81
    endloop
  endfacet
  facet normal 0 0 -1
    outer loop
      vertex -14.4181 -17.9781 -81
      vertex -4.4 -7 -81
      vertex 14.4181 -17.9781 -81
    endloop
  endfacet
  facet normal -0 0 -1
    outer loop
      vertex -4.4 -7 -81
      vertex -14.4181 -17.9781 -81
      vertex -6 -7 -81
    endloop
  endfacet
  facet normal 0 0 -1
    outer loop
      vertex -14.4181 -17.9781 -81
      vertex -14.8 -7 -81
      vertex -6 -7 -81
    endloop
  endfacet
  facet normal 0 0 -1
    outer loop
      vertex -14.4181 -17.9781 -81
      vertex -18 -14 -81
      vertex -14.8 -7 -81
    endloop
  endfacet
  facet normal 0 0 -1
    outer loop
      vertex -18 -14 -81
      vertex -14.4181 -17.9781 -81
      vertex -15.2361 -17.8042 -81
    endloop
  endfacet
  facet normal 0 0 -1
    outer loop
      vertex 16.6765 16.9726 -81
      vertex 14.4181 17.9781 -81
      vertex 16 17.4641 -81
    endloop
  endfacet
  facet normal 0 0 -1
    outer loop
      vertex 16 17.4641 -81
      vertex 14.4181 17.9781 -81
      vertex 15.2361 17.8042 -81
    endloop
  endfacet
  facet normal 0 0 -1
    outer loop
      vertex 6 7 -81
      vertex 14.4181 17.9781 -81
      vertex 14.8 7 -81
    endloop
  endfacet
  facet normal 0 0 -1
    outer loop
      vertex 4.4 7 -81
      vertex 6 7 -81
      vertex 4.4 -7 -81
    endloop
  endfacet
  facet normal 0 0 -1
    outer loop
      vertex 4.4 7 -81
      vertex 14.4181 17.9781 -81
      vertex 6 7 -81
    endloop
  endfacet
  facet normal 0 0 -1
    outer loop
      vertex -4.4 7 -81
      vertex 14.4181 17.9781 -81
      vertex 4.4 7 -81
    endloop
  endfacet
  facet normal 0 0 -1
    outer loop
      vertex -6 7 -81
      vertex -4.4 7 -81
      vertex -6 -7 -81
    endloop
  endfacet
  facet normal 0 0 -1
    outer loop
      vertex -14.4181 17.9781 -81
      vertex -4.4 7 -81
      vertex -6 7 -81
    endloop
  endfacet
  facet normal 0 0 -1
    outer loop
      vertex -4.4 7 -81
      vertex -14.4181 17.9781 -81
      vertex 14.4181 17.9781 -81
    endloop
  endfacet
  facet normal 0 0 -1
    outer loop
      vertex -14.8 7 -81
      vertex -14.4181 17.9781 -81
      vertex -6 7 -81
    endloop
  endfacet
  facet normal 0 0 -1
    outer loop
      vertex -18 14 -81
      vertex -14.4181 17.9781 -81
      vertex -14.8 7 -81
    endloop
  endfacet
  facet normal -0 0 -1
    outer loop
      vertex -14.8 -7 -81
      vertex -18 -14 -81
      vertex -14.8 7 -81
    endloop
  endfacet
  facet normal 0 0 -1
    outer loop
      vertex -14.4181 17.9781 -81
      vertex -18 14 -81
      vertex -15.2361 17.8042 -81
    endloop
  endfacet
  facet normal 0 0 -1
    outer loop
      vertex -18 -14 -81
      vertex -15.2361 -17.8042 -81
      vertex -16 -17.4641 -81
    endloop
  endfacet
  facet normal 0 0 -1
    outer loop
      vertex -18 -14 -81
      vertex -16 -17.4641 -81
      vertex -16.6765 -16.9726 -81
    endloop
  endfacet
  facet normal -0 0 -1
    outer loop
      vertex -14.8 7 -81
      vertex -18 -14 -81
      vertex -18 14 -81
    endloop
  endfacet
  facet normal 0 0 -1
    outer loop
      vertex -18 -14 -81
      vertex -16.6765 -16.9726 -81
      vertex -17.2361 -16.3511 -81
    endloop
  endfacet
  facet normal 0 0 -1
    outer loop
      vertex -15.2361 17.8042 -81
      vertex -18 14 -81
      vertex -16 17.4641 -81
    endloop
  endfacet
  facet normal 0 0 -1
    outer loop
      vertex -18 -14 -81
      vertex -17.2361 -16.3511 -81
      vertex -17.6542 -15.6269 -81
    endloop
  endfacet
  facet normal 0 0 -1
    outer loop
      vertex -16 17.4641 -81
      vertex -18 14 -81
      vertex -16.6765 16.9726 -81
    endloop
  endfacet
  facet normal 0 0 -1
    outer loop
      vertex -18 -14 -81
      vertex -17.6542 -15.6269 -81
      vertex -17.9126 -14.8316 -81
    endloop
  endfacet
  facet normal 0 0 -1
    outer loop
      vertex -16.6765 16.9726 -81
      vertex -18 14 -81
      vertex -17.2361 16.3511 -81
    endloop
  endfacet
  facet normal 0 0 -1
    outer loop
      vertex -17.2361 16.3511 -81
      vertex -18 14 -81
      vertex -17.6542 15.6269 -81
    endloop
  endfacet
  facet normal 0 0 -1
    outer loop
      vertex -17.6542 15.6269 -81
      vertex -18 14 -81
      vertex -17.9126 14.8316 -81
    endloop
  endfacet
  facet normal -0.994522 0.104529 0
    outer loop
      vertex -18 14 -81
      vertex -17.9126 14.8316 77.0001
      vertex -17.9126 14.8316 -81
    endloop
  endfacet
  facet normal -0.994522 0.104529 0
    outer loop
      vertex -17.9126 14.8316 77.0001
      vertex -18 14 -81
      vertex -18 14 77.0001
    endloop
  endfacet
  facet normal -0.207913 0.978147 0
    outer loop
      vertex -14.4181 17.9781 -81
      vertex -15.2361 17.8042 77.0001
      vertex -14.4181 17.9781 77.0001
    endloop
  endfacet
  facet normal -0.207913 0.978147 0
    outer loop
      vertex -15.2361 17.8042 77.0001
      vertex -14.4181 17.9781 -81
      vertex -15.2361 17.8042 -81
    endloop
  endfacet
  facet normal -0.587783 0.809018 0
    outer loop
      vertex -16 17.4641 -81
      vertex -16.6765 16.9726 77.0001
      vertex -16 17.4641 77.0001
    endloop
  endfacet
  facet normal -0.587783 0.809018 0
    outer loop
      vertex -16.6765 16.9726 77.0001
      vertex -16 17.4641 -81
      vertex -16.6765 16.9726 -81
    endloop
  endfacet
  facet normal 0.866026 -0.5 0
    outer loop
      vertex 17.2361 -16.3511 77.0001
      vertex 17.6542 -15.6269 -81
      vertex 17.6542 -15.6269 77.0001
    endloop
  endfacet
  facet normal 0.866026 -0.5 0
    outer loop
      vertex 17.6542 -15.6269 -81
      vertex 17.2361 -16.3511 77.0001
      vertex 17.2361 -16.3511 -81
    endloop
  endfacet
  facet normal -0.743144 -0.669131 0
    outer loop
      vertex -16.6765 -16.9726 -81
      vertex -17.2361 -16.3511 77.0001
      vertex -17.2361 -16.3511 -81
    endloop
  endfacet
  facet normal -0.743144 -0.669131 0
    outer loop
      vertex -17.2361 -16.3511 77.0001
      vertex -16.6765 -16.9726 -81
      vertex -16.6765 -16.9726 77.0001
    endloop
  endfacet
  facet normal 0.587784 -0.809018 0
    outer loop
      vertex 16 -17.4641 -81
      vertex 16.6765 -16.9726 77.0001
      vertex 16 -17.4641 77.0001
    endloop
  endfacet
  facet normal 0.587784 -0.809018 0
    outer loop
      vertex 16.6765 -16.9726 77.0001
      vertex 16 -17.4641 -81
      vertex 16.6765 -16.9726 -81
    endloop
  endfacet
  facet normal -0.866026 0.5 0
    outer loop
      vertex -17.6542 15.6269 -81
      vertex -17.2361 16.3511 77.0001
      vertex -17.2361 16.3511 -81
    endloop
  endfacet
  facet normal -0.866026 0.5 0
    outer loop
      vertex -17.2361 16.3511 77.0001
      vertex -17.6542 15.6269 -81
      vertex -17.6542 15.6269 77.0001
    endloop
  endfacet
  facet normal -0.743144 0.669131 0
    outer loop
      vertex -17.2361 16.3511 -81
      vertex -16.6765 16.9726 77.0001
      vertex -16.6765 16.9726 -81
    endloop
  endfacet
  facet normal -0.743144 0.669131 0
    outer loop
      vertex -16.6765 16.9726 77.0001
      vertex -17.2361 16.3511 -81
      vertex -17.2361 16.3511 77.0001
    endloop
  endfacet
  facet normal -0.951057 0.309016 0
    outer loop
      vertex -17.9126 14.8316 -81
      vertex -17.6542 15.6269 77.0001
      vertex -17.6542 15.6269 -81
    endloop
  endfacet
  facet normal -0.951057 0.309016 0
    outer loop
      vertex -17.6542 15.6269 77.0001
      vertex -17.9126 14.8316 -81
      vertex -17.9126 14.8316 77.0001
    endloop
  endfacet
  facet normal -0.406739 0.913545 0
    outer loop
      vertex -15.2361 17.8042 -81
      vertex -16 17.4641 77.0001
      vertex -15.2361 17.8042 77.0001
    endloop
  endfacet
  facet normal -0.406739 0.913545 0
    outer loop
      vertex -16 17.4641 77.0001
      vertex -15.2361 17.8042 -81
      vertex -16 17.4641 -81
    endloop
  endfacet
  facet normal -0.406738 -0.913545 0
    outer loop
      vertex -16 -17.4641 -81
      vertex -15.2361 -17.8042 77.0001
      vertex -16 -17.4641 77.0001
    endloop
  endfacet
  facet normal -0.406738 -0.913545 -0
    outer loop
      vertex -15.2361 -17.8042 77.0001
      vertex -16 -17.4641 -81
      vertex -15.2361 -17.8042 -81
    endloop
  endfacet
  facet normal -0.587784 -0.809018 0
    outer loop
      vertex -16.6765 -16.9726 -81
      vertex -16 -17.4641 77.0001
      vertex -16.6765 -16.9726 77.0001
    endloop
  endfacet
  facet normal -0.587784 -0.809018 -0
    outer loop
      vertex -16 -17.4641 77.0001
      vertex -16.6765 -16.9726 -81
      vertex -16 -17.4641 -81
    endloop
  endfacet
  facet normal -0.866026 -0.5 0
    outer loop
      vertex -17.2361 -16.3511 -81
      vertex -17.6542 -15.6269 77.0001
      vertex -17.6542 -15.6269 -81
    endloop
  endfacet
  facet normal -0.866026 -0.5 0
    outer loop
      vertex -17.6542 -15.6269 77.0001
      vertex -17.2361 -16.3511 -81
      vertex -17.2361 -16.3511 77.0001
    endloop
  endfacet
  facet normal -0.994522 -0.104529 0
    outer loop
      vertex 16 12 -78
      vertex 15.9126 12.8316 77.0001
      vertex 15.9126 12.8316 -78
    endloop
  endfacet
  facet normal -0.994522 -0.104529 0
    outer loop
      vertex 15.9126 12.8316 77.0001
      vertex 16 12 -78
      vertex 16 12 77.0001
    endloop
  endfacet
  facet normal -0.866026 -0.5 0
    outer loop
      vertex 15.6542 13.6269 -78
      vertex 15.2361 14.3511 77.0001
      vertex 15.2361 14.3511 -78
    endloop
  endfacet
  facet normal -0.866026 -0.5 0
    outer loop
      vertex 15.2361 14.3511 77.0001
      vertex 15.6542 13.6269 -78
      vertex 15.6542 13.6269 77.0001
    endloop
  endfacet
  facet normal -1 0 0
    outer loop
      vertex 16 -12 -78
      vertex 16 12 77.0001
      vertex 16 12 -78
    endloop
  endfacet
  facet normal -1 -0 0
    outer loop
      vertex 16 12 77.0001
      vertex 16 -12 -78
      vertex 16 -12 77.0001
    endloop
  endfacet
  facet normal -0.951057 -0.309017 0
    outer loop
      vertex 15.9126 12.8316 -78
      vertex 15.6542 13.6269 77.0001
      vertex 15.6542 13.6269 -78
    endloop
  endfacet
  facet normal -0.951057 -0.309017 0
    outer loop
      vertex 15.6542 13.6269 77.0001
      vertex 15.9126 12.8316 -78
      vertex 15.9126 12.8316 77.0001
    endloop
  endfacet
  facet normal -0.207912 -0.978148 0
    outer loop
      vertex 12.4181 15.9781 -78
      vertex 13.2361 15.8042 77.0001
      vertex 12.4181 15.9781 77.0001
    endloop
  endfacet
  facet normal -0.207912 -0.978148 -0
    outer loop
      vertex 13.2361 15.8042 77.0001
      vertex 12.4181 15.9781 -78
      vertex 13.2361 15.8042 -78
    endloop
  endfacet
  facet normal -0.743145 0.669131 0
    outer loop
      vertex 14.6765 -14.9726 -78
      vertex 15.2361 -14.3511 77.0001
      vertex 15.2361 -14.3511 -78
    endloop
  endfacet
  facet normal -0.743145 0.669131 0
    outer loop
      vertex 15.2361 -14.3511 77.0001
      vertex 14.6765 -14.9726 -78
      vertex 14.6765 -14.9726 77.0001
    endloop
  endfacet
  facet normal 0.994522 0.104529 0
    outer loop
      vertex -15.9126 -12.8316 77.0001
      vertex -16 -12 -78
      vertex -16 -12 77.0001
    endloop
  endfacet
  facet normal 0.994522 0.104529 0
    outer loop
      vertex -16 -12 -78
      vertex -15.9126 -12.8316 77.0001
      vertex -15.9126 -12.8316 -78
    endloop
  endfacet
  facet normal -0.743145 -0.669131 0
    outer loop
      vertex 15.2361 14.3511 -78
      vertex 14.6765 14.9726 77.0001
      vertex 14.6765 14.9726 -78
    endloop
  endfacet
  facet normal -0.743145 -0.669131 0
    outer loop
      vertex 14.6765 14.9726 77.0001
      vertex 15.2361 14.3511 -78
      vertex 15.2361 14.3511 77.0001
    endloop
  endfacet
  facet normal 0 1 -0
    outer loop
      vertex 12.4181 -15.9781 -78
      vertex -12.4181 -15.9781 77.0001
      vertex 12.4181 -15.9781 77.0001
    endloop
  endfacet
  facet normal 0 1 0
    outer loop
      vertex -12.4181 -15.9781 77.0001
      vertex 12.4181 -15.9781 -78
      vertex -12.4181 -15.9781 -78
    endloop
  endfacet
  facet normal -0.207912 0.978148 0
    outer loop
      vertex 13.2361 -15.8042 -78
      vertex 12.4181 -15.9781 77.0001
      vertex 13.2361 -15.8042 77.0001
    endloop
  endfacet
  facet normal -0.207912 0.978148 0
    outer loop
      vertex 12.4181 -15.9781 77.0001
      vertex 13.2361 -15.8042 -78
      vertex 12.4181 -15.9781 -78
    endloop
  endfacet
  facet normal 0.743145 -0.669131 0
    outer loop
      vertex -15.2361 14.3511 77.0001
      vertex -14.6765 14.9726 -78
      vertex -14.6765 14.9726 77.0001
    endloop
  endfacet
  facet normal 0.743145 -0.669131 0
    outer loop
      vertex -14.6765 14.9726 -78
      vertex -15.2361 14.3511 77.0001
      vertex -15.2361 14.3511 -78
    endloop
  endfacet
  facet normal 0 -1 0
    outer loop
      vertex -12.4181 15.9781 -78
      vertex 12.4181 15.9781 77.0001
      vertex -12.4181 15.9781 77.0001
    endloop
  endfacet
  facet normal 0 -1 -0
    outer loop
      vertex 12.4181 15.9781 77.0001
      vertex -12.4181 15.9781 -78
      vertex 12.4181 15.9781 -78
    endloop
  endfacet
  facet normal -0.587785 -0.809017 0
    outer loop
      vertex 14 15.4641 -78
      vertex 14.6765 14.9726 77.0001
      vertex 14 15.4641 77.0001
    endloop
  endfacet
  facet normal -0.587785 -0.809017 -0
    outer loop
      vertex 14.6765 14.9726 77.0001
      vertex 14 15.4641 -78
      vertex 14.6765 14.9726 -78
    endloop
  endfacet
  facet normal -0.406737 -0.913545 0
    outer loop
      vertex 13.2361 15.8042 -78
      vertex 14 15.4641 77.0001
      vertex 13.2361 15.8042 77.0001
    endloop
  endfacet
  facet normal -0.406737 -0.913545 -0
    outer loop
      vertex 14 15.4641 77.0001
      vertex 13.2361 15.8042 -78
      vertex 14 15.4641 -78
    endloop
  endfacet
  facet normal -0.951057 0.309017 0
    outer loop
      vertex 15.6542 -13.6269 -78
      vertex 15.9126 -12.8316 77.0001
      vertex 15.9126 -12.8316 -78
    endloop
  endfacet
  facet normal -0.951057 0.309017 0
    outer loop
      vertex 15.9126 -12.8316 77.0001
      vertex 15.6542 -13.6269 -78
      vertex 15.6542 -13.6269 77.0001
    endloop
  endfacet
  facet normal -0.994522 0.104529 0
    outer loop
      vertex 15.9126 -12.8316 -78
      vertex 16 -12 77.0001
      vertex 16 -12 -78
    endloop
  endfacet
  facet normal -0.994522 0.104529 0
    outer loop
      vertex 16 -12 77.0001
      vertex 15.9126 -12.8316 -78
      vertex 15.9126 -12.8316 77.0001
    endloop
  endfacet
  facet normal 0.207912 0.978148 -0
    outer loop
      vertex -12.4181 -15.9781 -78
      vertex -13.2361 -15.8042 77.0001
      vertex -12.4181 -15.9781 77.0001
    endloop
  endfacet
  facet normal 0.207912 0.978148 0
    outer loop
      vertex -13.2361 -15.8042 77.0001
      vertex -12.4181 -15.9781 -78
      vertex -13.2361 -15.8042 -78
    endloop
  endfacet
  facet normal 1 -0 0
    outer loop
      vertex -16 -12 77.0001
      vertex -16 12 -78
      vertex -16 12 77.0001
    endloop
  endfacet
  facet normal 1 0 0
    outer loop
      vertex -16 12 -78
      vertex -16 -12 77.0001
      vertex -16 -12 -78
    endloop
  endfacet
  facet normal 0 0 1
    outer loop
      vertex 12.4181 15.9781 -78
      vertex 16 12 -78
      vertex 15.9126 12.8316 -78
    endloop
  endfacet
  facet normal 0 0 1
    outer loop
      vertex 16 12 -78
      vertex 14.8 7 -78
      vertex 16 -12 -78
    endloop
  endfacet
  facet normal 0 0 1
    outer loop
      vertex 12.4181 15.9781 -78
      vertex 15.9126 12.8316 -78
      vertex 15.6542 13.6269 -78
    endloop
  endfacet
  facet normal -0 0 1
    outer loop
      vertex 14.8 -7 -78
      vertex 16 -12 -78
      vertex 14.8 7 -78
    endloop
  endfacet
  facet normal 0 0 1
    outer loop
      vertex 12.4181 15.9781 -78
      vertex 15.6542 13.6269 -78
      vertex 15.2361 14.3511 -78
    endloop
  endfacet
  facet normal 0 0 1
    outer loop
      vertex 12.4181 -15.9781 -78
      vertex 16 -12 -78
      vertex 14.8 -7 -78
    endloop
  endfacet
  facet normal 0 0 1
    outer loop
      vertex 16 -12 -78
      vertex 12.4181 -15.9781 -78
      vertex 15.9126 -12.8316 -78
    endloop
  endfacet
  facet normal 0 0 1
    outer loop
      vertex 12.4181 15.9781 -78
      vertex 15.2361 14.3511 -78
      vertex 14.6765 14.9726 -78
    endloop
  endfacet
  facet normal 0 0 1
    outer loop
      vertex 12.4181 15.9781 -78
      vertex 14.6765 14.9726 -78
      vertex 14 15.4641 -78
    endloop
  endfacet
  facet normal 0 0 1
    outer loop
      vertex 12.4181 15.9781 -78
      vertex 14 15.4641 -78
      vertex 13.2361 15.8042 -78
    endloop
  endfacet
  facet normal 0 0 1
    outer loop
      vertex 16 12 -78
      vertex 12.4181 15.9781 -78
      vertex 14.8 7 -78
    endloop
  endfacet
  facet normal 0 0 1
    outer loop
      vertex 12.4181 15.9781 -78
      vertex 6 7 -78
      vertex 14.8 7 -78
    endloop
  endfacet
  facet normal 0 0 1
    outer loop
      vertex 6 7 -78
      vertex 4.4 7 -78
      vertex 6 -7 -78
    endloop
  endfacet
  facet normal 0 0 1
    outer loop
      vertex 12.4181 15.9781 -78
      vertex 4.4 7 -78
      vertex 6 7 -78
    endloop
  endfacet
  facet normal 0 0 1
    outer loop
      vertex 12.4181 15.9781 -78
      vertex -4.4 7 -78
      vertex 4.4 7 -78
    endloop
  endfacet
  facet normal 0 0 1
    outer loop
      vertex -4.4 7 -78
      vertex -6 7 -78
      vertex -4.4 -7 -78
    endloop
  endfacet
  facet normal -0 0 1
    outer loop
      vertex -12.4181 15.9781 -78
      vertex -4.4 7 -78
      vertex 12.4181 15.9781 -78
    endloop
  endfacet
  facet normal 0 0 1
    outer loop
      vertex -4.4 7 -78
      vertex -12.4181 15.9781 -78
      vertex -6 7 -78
    endloop
  endfacet
  facet normal 0 0 1
    outer loop
      vertex -16 12 -78
      vertex -12.4181 15.9781 -78
      vertex -13.2361 15.8042 -78
    endloop
  endfacet
  facet normal 0 0 1
    outer loop
      vertex -16 12 -78
      vertex -13.2361 15.8042 -78
      vertex -14 15.4641 -78
    endloop
  endfacet
  facet normal 0 0 1
    outer loop
      vertex -16 12 -78
      vertex -14 15.4641 -78
      vertex -14.6765 14.9726 -78
    endloop
  endfacet
  facet normal 0 -0 1
    outer loop
      vertex -14.8 7 -78
      vertex -12.4181 15.9781 -78
      vertex -16 12 -78
    endloop
  endfacet
  facet normal 0 0 1
    outer loop
      vertex -12.4181 15.9781 -78
      vertex -14.8 7 -78
      vertex -6 7 -78
    endloop
  endfacet
  facet normal 0 0 1
    outer loop
      vertex -16 12 -78
      vertex -14.6765 14.9726 -78
      vertex -15.2361 14.3511 -78
    endloop
  endfacet
  facet normal 0 0 1
    outer loop
      vertex 15.9126 -12.8316 -78
      vertex 12.4181 -15.9781 -78
      vertex 15.6542 -13.6269 -78
    endloop
  endfacet
  facet normal 0 0 1
    outer loop
      vertex 15.6542 -13.6269 -78
      vertex 12.4181 -15.9781 -78
      vertex 15.2361 -14.3511 -78
    endloop
  endfacet
  facet normal 0 0 1
    outer loop
      vertex 15.2361 -14.3511 -78
      vertex 12.4181 -15.9781 -78
      vertex 14.6765 -14.9726 -78
    endloop
  endfacet
  facet normal 0 0 1
    outer loop
      vertex 14.6765 -14.9726 -78
      vertex 12.4181 -15.9781 -78
      vertex 14 -15.4641 -78
    endloop
  endfacet
  facet normal 0 0 1
    outer loop
      vertex 14 -15.4641 -78
      vertex 12.4181 -15.9781 -78
      vertex 13.2361 -15.8042 -78
    endloop
  endfacet
  facet normal -0 0 1
    outer loop
      vertex 6 -7 -78
      vertex 12.4181 -15.9781 -78
      vertex 14.8 -7 -78
    endloop
  endfacet
  facet normal 0 0 1
    outer loop
      vertex 4.4 -7 -78
      vertex 6 -7 -78
      vertex 4.4 7 -78
    endloop
  endfacet
  facet normal -0 0 1
    outer loop
      vertex 4.4 -7 -78
      vertex 12.4181 -15.9781 -78
      vertex 6 -7 -78
    endloop
  endfacet
  facet normal -0 0 1
    outer loop
      vertex -4.4 -7 -78
      vertex 12.4181 -15.9781 -78
      vertex 4.4 -7 -78
    endloop
  endfacet
  facet normal 0 0 1
    outer loop
      vertex -6 -7 -78
      vertex -4.4 -7 -78
      vertex -6 7 -78
    endloop
  endfacet
  facet normal 0 0 1
    outer loop
      vertex -12.4181 -15.9781 -78
      vertex -4.4 -7 -78
      vertex -6 -7 -78
    endloop
  endfacet
  facet normal 0 0 1
    outer loop
      vertex -4.4 -7 -78
      vertex -12.4181 -15.9781 -78
      vertex 12.4181 -15.9781 -78
    endloop
  endfacet
  facet normal -0 0 1
    outer loop
      vertex -14.8 -7 -78
      vertex -12.4181 -15.9781 -78
      vertex -6 -7 -78
    endloop
  endfacet
  facet normal 0 0 1
    outer loop
      vertex -12.4181 -15.9781 -78
      vertex -16 -12 -78
      vertex -13.2361 -15.8042 -78
    endloop
  endfacet
  facet normal 0 0 1
    outer loop
      vertex -13.2361 -15.8042 -78
      vertex -16 -12 -78
      vertex -14 -15.4641 -78
    endloop
  endfacet
  facet normal 0 0 1
    outer loop
      vertex -12.4181 -15.9781 -78
      vertex -14.8 -7 -78
      vertex -16 -12 -78
    endloop
  endfacet
  facet normal 0 0 1
    outer loop
      vertex -14.8 7 -78
      vertex -16 12 -78
      vertex -14.8 -7 -78
    endloop
  endfacet
  facet normal 0 0 1
    outer loop
      vertex -16 -12 -78
      vertex -14.8 -7 -78
      vertex -16 12 -78
    endloop
  endfacet
  facet normal 0 0 1
    outer loop
      vertex -16 12 -78
      vertex -15.2361 14.3511 -78
      vertex -15.6542 13.6269 -78
    endloop
  endfacet
  facet normal 0 0 1
    outer loop
      vertex -14 -15.4641 -78
      vertex -16 -12 -78
      vertex -14.6765 -14.9726 -78
    endloop
  endfacet
  facet normal 0 0 1
    outer loop
      vertex -16 12 -78
      vertex -15.6542 13.6269 -78
      vertex -15.9126 12.8316 -78
    endloop
  endfacet
  facet normal 0 0 1
    outer loop
      vertex -14.6765 -14.9726 -78
      vertex -16 -12 -78
      vertex -15.2361 -14.3511 -78
    endloop
  endfacet
  facet normal 0 0 1
    outer loop
      vertex -15.2361 -14.3511 -78
      vertex -16 -12 -78
      vertex -15.6542 -13.6269 -78
    endloop
  endfacet
  facet normal 0 0 1
    outer loop
      vertex -15.6542 -13.6269 -78
      vertex -16 -12 -78
      vertex -15.9126 -12.8316 -78
    endloop
  endfacet
  facet normal 0.207912 -0.978148 0
    outer loop
      vertex -13.2361 15.8042 -78
      vertex -12.4181 15.9781 77.0001
      vertex -13.2361 15.8042 77.0001
    endloop
  endfacet
  facet normal 0.207912 -0.978148 0
    outer loop
      vertex -12.4181 15.9781 77.0001
      vertex -13.2361 15.8042 -78
      vertex -12.4181 15.9781 -78
    endloop
  endfacet
  facet normal -0.866026 0.5 0
    outer loop
      vertex 15.2361 -14.3511 -78
      vertex 15.6542 -13.6269 77.0001
      vertex 15.6542 -13.6269 -78
    endloop
  endfacet
  facet normal -0.866026 0.5 0
    outer loop
      vertex 15.6542 -13.6269 77.0001
      vertex 15.2361 -14.3511 -78
      vertex 15.2361 -14.3511 77.0001
    endloop
  endfacet
  facet normal 0.743145 0.669131 0
    outer loop
      vertex -14.6765 -14.9726 77.0001
      vertex -15.2361 -14.3511 -78
      vertex -15.2361 -14.3511 77.0001
    endloop
  endfacet
  facet normal 0.743145 0.669131 0
    outer loop
      vertex -15.2361 -14.3511 -78
      vertex -14.6765 -14.9726 77.0001
      vertex -14.6765 -14.9726 -78
    endloop
  endfacet
  facet normal 0.587785 0.809017 -0
    outer loop
      vertex -14 -15.4641 -78
      vertex -14.6765 -14.9726 77.0001
      vertex -14 -15.4641 77.0001
    endloop
  endfacet
  facet normal 0.587785 0.809017 0
    outer loop
      vertex -14.6765 -14.9726 77.0001
      vertex -14 -15.4641 -78
      vertex -14.6765 -14.9726 -78
    endloop
  endfacet
  facet normal 0.406737 0.913545 -0
    outer loop
      vertex -13.2361 -15.8042 -78
      vertex -14 -15.4641 77.0001
      vertex -13.2361 -15.8042 77.0001
    endloop
  endfacet
  facet normal 0.406737 0.913545 0
    outer loop
      vertex -14 -15.4641 77.0001
      vertex -13.2361 -15.8042 -78
      vertex -14 -15.4641 -78
    endloop
  endfacet
  facet normal 0.866026 -0.5 0
    outer loop
      vertex -15.6542 13.6269 77.0001
      vertex -15.2361 14.3511 -78
      vertex -15.2361 14.3511 77.0001
    endloop
  endfacet
  facet normal 0.866026 -0.5 0
    outer loop
      vertex -15.2361 14.3511 -78
      vertex -15.6542 13.6269 77.0001
      vertex -15.6542 13.6269 -78
    endloop
  endfacet
  facet normal 0.994522 -0.104529 0
    outer loop
      vertex -16 12 77.0001
      vertex -15.9126 12.8316 -78
      vertex -15.9126 12.8316 77.0001
    endloop
  endfacet
  facet normal 0.994522 -0.104529 0
    outer loop
      vertex -15.9126 12.8316 -78
      vertex -16 12 77.0001
      vertex -16 12 -78
    endloop
  endfacet
  facet normal 0.951057 -0.309017 0
    outer loop
      vertex -15.9126 12.8316 77.0001
      vertex -15.6542 13.6269 -78
      vertex -15.6542 13.6269 77.0001
    endloop
  endfacet
  facet normal 0.951057 -0.309017 0
    outer loop
      vertex -15.6542 13.6269 -78
      vertex -15.9126 12.8316 77.0001
      vertex -15.9126 12.8316 -78
    endloop
  endfacet
  facet normal 0.587784 -0.809018 0
    outer loop
      vertex -14.6765 14.9726 -78
      vertex -14 15.4641 77.0001
      vertex -14.6765 14.9726 77.0001
    endloop
  endfacet
  facet normal 0.587784 -0.809018 0
    outer loop
      vertex -14 15.4641 77.0001
      vertex -14.6765 14.9726 -78
      vertex -14 15.4641 -78
    endloop
  endfacet
  facet normal 0.406738 -0.913545 0
    outer loop
      vertex -14 15.4641 -78
      vertex -13.2361 15.8042 77.0001
      vertex -14 15.4641 77.0001
    endloop
  endfacet
  facet normal 0.406738 -0.913545 0
    outer loop
      vertex -13.2361 15.8042 77.0001
      vertex -14 15.4641 -78
      vertex -13.2361 15.8042 -78
    endloop
  endfacet
  facet normal 0.866026 0.5 0
    outer loop
      vertex -15.2361 -14.3511 77.0001
      vertex -15.6542 -13.6269 -78
      vertex -15.6542 -13.6269 77.0001
    endloop
  endfacet
  facet normal 0.866026 0.5 0
    outer loop
      vertex -15.6542 -13.6269 -78
      vertex -15.2361 -14.3511 77.0001
      vertex -15.2361 -14.3511 -78
    endloop
  endfacet
  facet normal 0.951057 0.309017 0
    outer loop
      vertex -15.6542 -13.6269 77.0001
      vertex -15.9126 -12.8316 -78
      vertex -15.9126 -12.8316 77.0001
    endloop
  endfacet
  facet normal 0.951057 0.309017 0
    outer loop
      vertex -15.9126 -12.8316 -78
      vertex -15.6542 -13.6269 77.0001
      vertex -15.6542 -13.6269 -78
    endloop
  endfacet
  facet normal -0.587785 0.809017 0
    outer loop
      vertex 14.6765 -14.9726 -78
      vertex 14 -15.4641 77.0001
      vertex 14.6765 -14.9726 77.0001
    endloop
  endfacet
  facet normal -0.587785 0.809017 0
    outer loop
      vertex 14 -15.4641 77.0001
      vertex 14.6765 -14.9726 -78
      vertex 14 -15.4641 -78
    endloop
  endfacet
  facet normal -0.406737 0.913545 0
    outer loop
      vertex 14 -15.4641 -78
      vertex 13.2361 -15.8042 77.0001
      vertex 14 -15.4641 77.0001
    endloop
  endfacet
  facet normal -0.406737 0.913545 0
    outer loop
      vertex 13.2361 -15.8042 77.0001
      vertex 14 -15.4641 -78
      vertex 13.2361 -15.8042 -78
    endloop
  endfacet
endsolid OpenSCAD_Model
